                                                                        S      1
,,5HLink ,5HLink ,7Hunknown,7Hunknown,32,38,7,99,15,,1.,1,4HINCH,1,0.08,G      1
15H20211218.204322,0.000393700787401575,10000.,7Hunknown,7Hunknown,11,0,G      2
15H20211216.074239;                                                     G      3
     186       1                                                00000000D      1
     186            -103       1       0                               0D      2
     514       2                                                00010000D      3
     514                       1       1                               0D      4
     510       3                                                00010000D      5
     510            -103       1       1                               0D      6
     510       4                                                00010000D      7
     510            -103       1       1                               0D      8
     510       5                                                00010000D      9
     510            -103       1       1                               0D     10
     510       6                                                00010000D     11
     510            -103       1       1                               0D     12
     510       7                                                00010000D     13
     510            -103       1       1                               0D     14
     510       8                                                00010000D     15
     510            -103       1       1                               0D     16
     510       9                                                00010000D     17
     510            -103       1       1                               0D     18
     510      10                                                00010000D     19
     510            -103       1       1                               0D     20
     508      11                                                00010000D     21
     508                       1       1                               0D     22
     508      12                                                00010000D     23
     508                       1       1                               0D     24
     508      13                                                00010000D     25
     508                       1       1                               0D     26
     508      14                                                00010000D     27
     508                       1       1                               0D     28
     508      15                                                00010000D     29
     508                       1       1                               0D     30
     508      16                                                00010000D     31
     508                       1       1                               0D     32
     508      17                                                00010000D     33
     508                       1       1                               0D     34
     508      18                                                00010000D     35
     508                       1       1                               0D     36
     508      19                                                00010000D     37
     508                       1       1                               0D     38
     508      20                                                00010000D     39
     508                       1       1                               0D     40
     508      21                                                00010000D     41
     508                       1       1                               0D     42
     508      22                                                00010000D     43
     508                       1       1                               0D     44
     126      23                                                00010000D     45
     126       0              12       0                               0D     46
     126      35                                                00010000D     47
     126       0               3       0                               0D     48
     126      38                                                00010000D     49
     126       0              12       0                               0D     50
     126      50                                                00010000D     51
     126       0              12       0                               0D     52
     126      62                                                00010000D     53
     126       0               3       0                               0D     54
     126      65                                                00010000D     55
     126       0              12       0                               0D     56
     126      77                                                00010000D     57
     126       0               4       0                               0D     58
     126      81                                                00010000D     59
     126       0               3       0                               0D     60
     126      84                                                00010000D     61
     126       0               3       0                               0D     62
     126      87                                                00010000D     63
     126       0               3       0                               0D     64
     126      90                                                00010000D     65
     126       0               8       0                               0D     66
     126      98                                                00010000D     67
     126       0               8       0                               0D     68
     126     106                                                00010000D     69
     126       0               3       0                               0D     70
     126     109                                                00010000D     71
     126       0               4       0                               0D     72
     126     113                                                00010000D     73
     126       0               4       0                               0D     74
     126     117                                                00010000D     75
     126       0               3       0                               0D     76
     126     120                                                00010000D     77
     126       0               8       0                               0D     78
     126     128                                                00010000D     79
     126       0               8       0                               0D     80
     128     136                                                00010000D     81
     128       0    -103      21       0                               0D     82
     128     157                                                00010000D     83
     128       0    -103      21       0                               0D     84
     128     178                                                00010000D     85
     128       0    -103       7       0                               0D     86
     128     185                                                00010000D     87
     128       0    -103      12       0                               0D     88
     128     197                                                00010000D     89
     128       0    -103       6       0                               0D     90
     128     203                                                00010000D     91
     128       0    -103      13       0                               0D     92
     128     216                                                00010000D     93
     128       0    -103       6       0                               0D     94
     128     222                                                00010000D     95
     128       0    -103       6       0                               0D     96
     502     228                                                00010000D     97
     502                       9       1                               0D     98
     504     237                                                00010001D     99
     504                       4       1                               0D    100
     406     241                                                00000000D    101
     406                       1      15                               0D    102
     314     242                                                00000200D    103
     314                       2       0                               0D    104
186,3,1,0,0,1,101;                                                     1P      1
514,8,5,1,7,1,9,1,11,1,13,1,15,1,17,1,19,1;                            3P      2
510,81,1,1,21;                                                         5P      3
510,83,1,1,23;                                                         7P      4
510,85,1,1,25;                                                         9P      5
510,87,1,1,27;                                                        11P      6
510,89,1,1,29;                                                        13P      7
510,91,1,1,31;                                                        15P      8
510,93,3,1,33,35,37;                                                  17P      9
510,95,3,1,39,41,43;                                                  19P     10
508,4,0,99,1,0,0,0,99,2,1,0,0,99,3,0,0,0,99,2,0,0;                    21P     11
508,4,0,99,4,0,0,0,99,5,1,0,0,99,6,0,0,0,99,5,0,0;                    23P     12
508,4,0,99,7,0,0,0,99,8,1,0,0,99,9,0,0,0,99,10,0,0;                   25P     13
508,4,0,99,11,1,0,0,99,10,1,0,0,99,12,0,0,0,99,13,0,0;                27P     14
508,4,0,99,14,0,0,0,99,13,1,0,0,99,15,0,0,0,99,16,0,0;                29P     15
508,4,0,99,17,1,0,0,99,16,1,0,0,99,18,0,0,0,99,8,0,0;                 31P     16
508,4,0,99,18,1,0,0,99,15,1,0,0,99,12,1,0,0,99,9,1,0;                 33P     17
508,1,0,99,1,1,0;                                                     35P     18
508,1,0,99,4,1,0;                                                     37P     19
508,4,0,99,17,0,0,0,99,7,1,0,0,99,11,0,0,0,99,14,1,0;                 39P     20
508,1,0,99,3,1,0;                                                     41P     21
508,1,0,99,6,1,0;                                                     43P     22
126,8,2,0,1,0,0,-3.14159265358979,-3.14159265358979,                  45P     23
-3.14159265358979,-1.5707963267949,-1.5707963267949,0.,0.,            45P     24
1.5707963267949,1.5707963267949,3.14159265358979,                     45P     25
3.14159265358979,3.14159265358979,1.,0.707106781186543,1.,            45P     26
0.707106781186552,1.,0.707106781186552,1.,0.707106781186543,1.,       45P     27
3.12499999999908,-1.68434917259612D-14,0.1,3.12499999999908,          45P     28
-0.125000000000017,0.1,2.99999999999908,-0.125000000000017,0.1,       45P     29
2.87499999999908,-0.125000000000017,0.1,2.87499999999908,             45P     30
-1.68281836409719D-14,0.1,2.87499999999908,0.124999999999983,         45P     31
0.1,2.99999999999908,0.124999999999983,0.1,3.12499999999908,          45P     32
0.124999999999983,0.1,3.12499999999908,-1.68128755559825D-14,         45P     33
0.1,-3.14159265358979,3.14159265358979,0.,0.,0.;                      45P     34
126,1,1,0,0,1,0,0.,0.,0.8,0.8,1.,1.,3.12499999999908,                 47P     35
-1.68281836409719D-14,0.1,3.12499999999908,                           47P     36
-1.68281836409719D-14,0.,0.,0.8,0.,0.,0.;                             47P     37
126,8,2,0,1,0,0,-3.14159265358979,-3.14159265358979,                  49P     38
-3.14159265358979,-1.5707963267949,-1.5707963267949,0.,0.,            49P     39
1.5707963267949,1.5707963267949,3.14159265358979,                     49P     40
3.14159265358979,3.14159265358979,1.,0.707106781186543,1.,            49P     41
0.707106781186552,1.,0.707106781186552,1.,0.707106781186543,1.,       49P     42
3.12499999999908,-1.68128755559825D-14,0.,3.12499999999908,           49P     43
0.124999999999983,0.,2.99999999999908,0.124999999999983,0.,           49P     44
2.87499999999908,0.124999999999983,0.,2.87499999999908,               49P     45
-1.68281836409719D-14,0.,2.87499999999908,-0.125000000000017,0.,      49P     46
2.99999999999908,-0.125000000000017,0.,3.12499999999908,              49P     47
-0.125000000000017,0.,3.12499999999908,-1.68434917259612D-14,0.,      49P     48
-3.14159265358979,3.14159265358979,0.,0.,0.;                          49P     49
126,8,2,0,1,0,0,-3.14159265358979,-3.14159265358979,                  51P     50
-3.14159265358979,-1.5707963267949,-1.5707963267949,0.,0.,            51P     51
1.5707963267949,1.5707963267949,3.14159265358979,                     51P     52
3.14159265358979,3.14159265358979,1.,0.707106781186543,1.,            51P     53
0.707106781186552,1.,0.707106781186552,1.,0.707106781186543,1.,       51P     54
-2.87500000000092,-1.68434917259612D-14,0.1,-2.87500000000092,        51P     55
-0.125000000000017,0.1,-3.00000000000092,-0.125000000000017,0.1,      51P     56
-3.12500000000092,-0.125000000000017,0.1,-3.12500000000092,           51P     57
-1.68281836409719D-14,0.1,-3.12500000000092,0.124999999999983,        51P     58
0.1,-3.00000000000092,0.124999999999983,0.1,-2.87500000000092,        51P     59
0.124999999999983,0.1,-2.87500000000092,-1.68128755559825D-14,        51P     60
0.1,-3.14159265358979,3.14159265358979,0.,0.,0.;                      51P     61
126,1,1,0,0,1,0,0.,0.,0.8,0.8,1.,1.,-2.87500000000092,                53P     62
-1.68281836409719D-14,0.1,-2.87500000000092,                          53P     63
-1.68281836409719D-14,0.,0.,0.8,0.,0.,0.;                             53P     64
126,8,2,0,1,0,0,-3.14159265358979,-3.14159265358979,                  55P     65
-3.14159265358979,-1.5707963267949,-1.5707963267949,0.,0.,            55P     66
1.5707963267949,1.5707963267949,3.14159265358979,                     55P     67
3.14159265358979,3.14159265358979,1.,0.707106781186543,1.,            55P     68
0.707106781186552,1.,0.707106781186552,1.,0.707106781186543,1.,       55P     69
-2.87500000000092,-1.68128755559825D-14,0.,-2.87500000000092,         55P     70
0.124999999999983,0.,-3.00000000000092,0.124999999999983,0.,          55P     71
-3.12500000000092,0.124999999999983,0.,-3.12500000000092,             55P     72
-1.68281836409719D-14,0.,-3.12500000000092,-0.125000000000017,        55P     73
0.,-3.00000000000092,-0.125000000000017,0.,-2.87500000000092,         55P     74
-0.125000000000017,0.,-2.87500000000092,-1.68434917259612D-14,        55P     75
0.,-3.14159265358979,3.14159265358979,0.,0.,0.;                       55P     76
126,1,1,0,0,1,0,8.08789477957894D-34,8.08789477957894D-34,15.24,      57P     77
15.24,1.,1.,-3.00000000000092,0.249999999999983,0.,                   57P     78
2.99999999999908,0.249999999999983,0.,8.08789477957894D-34,           57P     79
15.24,0.,0.,0.;                                                       57P     80
126,1,1,0,0,1,0,0.,0.,0.254,0.254,1.,1.,-3.00000000000092,            59P     81
0.249999999999983,0.,-3.00000000000092,0.249999999999983,0.1,0.,      59P     82
0.254,0.,0.,0.;                                                       59P     83
126,1,1,0,0,1,0,-15.24,-15.24,0.,0.,1.,1.,2.99999999999908,           61P     84
0.249999999999983,0.1,-3.00000000000092,0.249999999999983,0.1,        61P     85
-15.24,0.,0.,0.,0.;                                                   61P     86
126,1,1,0,0,1,0,0.,0.,0.254,0.254,1.,1.,2.99999999999908,             63P     87
0.249999999999983,0.,2.99999999999908,0.249999999999983,0.1,0.,       63P     88
0.254,0.,0.,0.;                                                       63P     89
126,4,2,0,0,0,0,0.166282463776885,0.166282463776885,                  65P     90
0.166282463776885,1.73707879057178,1.73707879057178,                  65P     91
3.30787511736668,3.30787511736668,3.30787511736668,1.,                65P     92
0.707106781186551,1.,0.70710678118655,1.,2.99999999999908,            65P     93
-0.250000000000017,0.,3.24999999999908,-0.250000000000016,0.,         65P     94
3.24999999999908,-1.68664295128832D-14,0.,3.24999999999908,           65P     95
0.249999999999983,0.,2.99999999999908,0.249999999999983,0.,           65P     96
0.166282463776885,3.30787511736668,0.,0.,0.;                          65P     97
126,4,2,0,0,0,0,0.166282463776885,0.166282463776885,                  67P     98
0.166282463776885,1.73707879057178,1.73707879057178,                  67P     99
3.30787511736668,3.30787511736668,3.30787511736668,1.,                67P    100
0.707106781186551,1.,0.70710678118655,1.,2.99999999999908,            67P    101
-0.250000000000017,0.1,3.24999999999908,-0.250000000000016,0.1,       67P    102
3.24999999999908,-1.68664295128832D-14,0.1,3.24999999999908,          67P    103
0.249999999999983,0.1,2.99999999999908,0.249999999999983,0.1,         67P    104
0.166282463776885,3.30787511736668,0.,0.,0.;                          67P    105
126,1,1,0,0,1,0,0.,0.,0.254,0.254,1.,1.,2.99999999999908,             69P    106
-0.250000000000017,0.,2.99999999999908,-0.250000000000017,0.1,        69P    107
0.,0.254,0.,0.,0.;                                                    69P    108
126,1,1,0,0,1,0,8.88178419700125D-16,8.88178419700125D-16,15.24,      71P    109
15.24,1.,1.,2.99999999999908,-0.250000000000017,0.,                   71P    110
-3.00000000000092,-0.250000000000017,0.,8.88178419700125D-16,         71P    111
15.24,0.,0.,0.;                                                       71P    112
126,1,1,0,0,1,0,-15.24,-15.24,-1.77635683940025D-15,                  73P    113
-1.77635683940025D-15,1.,1.,-3.00000000000092,                        73P    114
-0.250000000000017,0.1,2.99999999999908,-0.250000000000017,0.1,       73P    115
-15.24,-1.77635683940025D-15,0.,0.,0.;                                73P    116
126,1,1,0,0,1,0,0.,0.,0.254,0.254,1.,1.,-3.00000000000092,            75P    117
-0.250000000000017,0.,-3.00000000000092,-0.250000000000017,0.1,       75P    118
0.,0.254,0.,0.,0.;                                                    75P    119
126,4,2,0,0,0,0,0.16628246377688,0.16628246377688,                    77P    120
0.16628246377688,1.73707879057178,1.73707879057178,                   77P    121
3.30787511736667,3.30787511736667,3.30787511736667,1.,                77P    122
0.707106781186551,1.,0.707106781186544,1.,-3.00000000000092,          77P    123
0.249999999999983,0.,-3.25000000000092,0.249999999999983,0.,          77P    124
-3.25000000000092,-1.70248766965157D-14,0.,-3.25000000000092,         77P    125
-0.250000000000017,0.,-3.00000000000092,-0.250000000000017,0.,        77P    126
0.16628246377688,3.30787511736667,0.,0.,0.;                           77P    127
126,4,2,0,0,0,0,0.16628246377688,0.16628246377688,                    79P    128
0.16628246377688,1.73707879057178,1.73707879057178,                   79P    129
3.30787511736667,3.30787511736667,3.30787511736667,1.,                79P    130
0.707106781186551,1.,0.707106781186544,1.,-3.00000000000092,          79P    131
0.249999999999983,0.1,-3.25000000000092,0.249999999999983,0.1,        79P    132
-3.25000000000092,-1.70248766965157D-14,0.1,-3.25000000000092,        79P    133
-0.250000000000017,0.1,-3.00000000000092,-0.250000000000017,0.1,      79P    134
0.16628246377688,3.30787511736667,0.,0.,0.;                           79P    135
128,1,8,1,2,0,1,0,0,1,0.,0.,0.8,0.8,-3.14159265358979,                81P    136
-3.14159265358979,-3.14159265358979,-1.5707963267949,                 81P    137
-1.5707963267949,0.,0.,1.5707963267949,1.5707963267949,               81P    138
3.14159265358979,3.14159265358979,3.14159265358979,1.,1.,             81P    139
0.707106781186548,0.707106781186548,1.,1.,0.707106781186548,          81P    140
0.707106781186548,1.,1.,0.707106781186548,0.707106781186548,1.,       81P    141
1.,0.707106781186548,0.707106781186548,1.,1.,3.12499999999908,        81P    142
-1.68281836409719D-14,0.1,3.12499999999908,                           81P    143
-1.68281836409719D-14,0.,3.12499999999908,-0.125000000000017,         81P    144
0.1,3.12499999999908,-0.125000000000017,0.,2.99999999999908,          81P    145
-0.125000000000017,0.1,2.99999999999908,-0.125000000000017,0.,        81P    146
2.87499999999908,-0.125000000000017,0.1,2.87499999999908,             81P    147
-0.125000000000017,0.,2.87499999999908,-1.68281836409719D-14,         81P    148
0.1,2.87499999999908,-1.68281836409719D-14,0.,2.87499999999908,       81P    149
0.124999999999983,0.1,2.87499999999908,0.124999999999983,0.,          81P    150
2.99999999999908,0.124999999999983,0.1,2.99999999999908,              81P    151
0.124999999999983,0.,3.12499999999908,0.124999999999983,0.1,          81P    152
3.12499999999908,0.124999999999983,0.,3.12499999999908,               81P    153
-1.68281836409719D-14,0.1,3.12499999999908,                           81P    154
-1.68281836409719D-14,0.,0.,0.8,-3.14159265358979,                    81P    155
3.14159265358979;                                                     81P    156
128,1,8,1,2,0,1,0,0,1,0.,0.,0.8,0.8,-3.14159265358979,                83P    157
-3.14159265358979,-3.14159265358979,-1.5707963267949,                 83P    158
-1.5707963267949,0.,0.,1.5707963267949,1.5707963267949,               83P    159
3.14159265358979,3.14159265358979,3.14159265358979,1.,1.,             83P    160
0.707106781186548,0.707106781186548,1.,1.,0.707106781186548,          83P    161
0.707106781186548,1.,1.,0.707106781186548,0.707106781186548,1.,       83P    162
1.,0.707106781186548,0.707106781186548,1.,1.,-2.87500000000092,       83P    163
-1.68281836409719D-14,0.1,-2.87500000000092,                          83P    164
-1.68281836409719D-14,0.,-2.87500000000092,-0.125000000000017,        83P    165
0.1,-2.87500000000092,-0.125000000000017,0.,-3.00000000000092,        83P    166
-0.125000000000017,0.1,-3.00000000000092,-0.125000000000017,0.,       83P    167
-3.12500000000092,-0.125000000000017,0.1,-3.12500000000092,           83P    168
-0.125000000000017,0.,-3.12500000000092,-1.68281836409719D-14,        83P    169
0.1,-3.12500000000092,-1.68281836409719D-14,0.,                       83P    170
-3.12500000000092,0.124999999999983,0.1,-3.12500000000092,            83P    171
0.124999999999983,0.,-3.00000000000092,0.124999999999983,0.1,         83P    172
-3.00000000000092,0.124999999999983,0.,-2.87500000000092,             83P    173
0.124999999999983,0.1,-2.87500000000092,0.124999999999983,0.,         83P    174
-2.87500000000092,-1.68281836409719D-14,0.1,-2.87500000000092,        83P    175
-1.68281836409719D-14,0.,0.,0.8,-3.14159265358979,                    83P    176
3.14159265358979;                                                     83P    177
128,1,1,1,1,0,0,1,0,0,-0.00100000000000089,-0.00100000000000089,      85P    178
15.241,15.241,-0.001,-0.001,0.255,0.255,1.,1.,1.,1.,                  85P    179
3.00039370078648,0.249999999999983,-0.000393700787401575,             85P    180
-3.00039370078832,0.249999999999983,-0.000393700787401575,            85P    181
3.00039370078648,0.249999999999983,0.100393700787402,                 85P    182
-3.00039370078832,0.249999999999983,0.100393700787402,                85P    183
-0.00100000000000089,15.241,-0.001,0.255;                             85P    184
128,1,4,1,2,0,0,0,0,0,0.,0.,0.4,0.4,0.166282463776884,                87P    185
0.166282463776884,0.166282463776884,1.73707879057178,                 87P    186
1.73707879057178,3.30787511736668,3.30787511736668,                   87P    187
3.30787511736668,1.,1.,0.707106781186548,0.707106781186548,1.,        87P    188
1.,0.707106781186548,0.707106781186548,1.,1.,2.99999999999908,        87P    189
-0.250000000000017,0.1,2.99999999999908,-0.250000000000017,0.,        87P    190
3.24999999999908,-0.250000000000017,0.1,3.24999999999908,             87P    191
-0.250000000000017,0.,3.24999999999908,-1.68718932088705D-14,         87P    192
0.1,3.24999999999908,-1.68718932088705D-14,0.,3.24999999999908,       87P    193
0.249999999999983,0.1,3.24999999999908,0.249999999999983,0.,          87P    194
2.99999999999908,0.249999999999983,0.1,2.99999999999908,              87P    195
0.249999999999983,0.,0.,0.4,0.166282463776884,3.30787511736668;       87P    196
128,1,1,1,1,0,0,1,0,0,-0.001,-0.001,15.241,15.241,-0.001,-0.001,      89P    197
0.255,0.255,1.,1.,1.,1.,-3.00039370078832,-0.250000000000017,         89P    198
-0.000393700787401575,3.00039370078648,-0.250000000000017,            89P    199
-0.000393700787401575,-3.00039370078832,-0.250000000000017,           89P    200
0.100393700787402,3.00039370078648,-0.250000000000017,                89P    201
0.100393700787402,-0.001,15.241,-0.001,0.255;                         89P    202
128,1,4,1,2,0,0,0,0,0,0.,0.,0.4,0.4,0.16628246377688,                 91P    203
0.16628246377688,0.16628246377688,1.73707879057178,                   91P    204
1.73707879057178,3.30787511736667,3.30787511736667,                   91P    205
3.30787511736667,1.,1.,0.707106781186547,0.707106781186547,1.,        91P    206
1.,0.707106781186547,0.707106781186547,1.,1.,-3.00000000000092,       91P    207
0.249999999999983,0.1,-3.00000000000092,0.249999999999983,0.,         91P    208
-3.25000000000092,0.249999999999983,0.1,-3.25000000000092,            91P    209
0.249999999999983,0.,-3.25000000000092,-1.69101390807818D-14,         91P    210
0.1,-3.25000000000092,-1.69101390807818D-14,0.,                       91P    211
-3.25000000000092,-0.250000000000017,0.1,-3.25000000000092,           91P    212
-0.250000000000017,0.,-3.00000000000092,-0.250000000000017,0.1,       91P    213
-3.00000000000092,-0.250000000000017,0.,0.,0.4,0.16628246377688,      91P    214
3.30787511736667;                                                     91P    215
128,1,1,1,1,0,0,1,0,0,-8.256,-8.256,8.256,8.256,                      93P    216
-0.636000000000001,-0.636000000000001,0.636,0.636,1.,1.,1.,1.,        93P    217
-3.25039370078832,-0.250393700787419,0.1,3.25039370078648,            93P    218
-0.250393700787419,0.1,-3.25039370078832,0.250393700787385,0.1,       93P    219
3.25039370078648,0.250393700787385,0.1,-8.256,8.256,                  93P    220
-0.636000000000001,0.636;                                             93P    221
128,1,1,1,1,0,0,1,0,0,-8.256,-8.256,8.256,8.256,                      95P    222
-0.636000000000001,-0.636000000000001,0.636,0.636,1.,1.,1.,1.,        95P    223
3.25039370078648,-0.250393700787419,0.,-3.25039370078832,             95P    224
-0.250393700787419,0.,3.25039370078648,0.250393700787385,0.,          95P    225
-3.25039370078832,0.250393700787385,0.,-8.256,8.256,                  95P    226
-0.636000000000001,0.636;                                             95P    227
502,12,3.12499999999908,-1.68128755559825D-14,0.1,                    97P    228
3.12499999999908,-1.68128755559825D-14,0.,-2.87500000000092,          97P    229
-1.68128755559825D-14,0.1,-2.87500000000092,                          97P    230
-1.68128755559825D-14,0.,-3.00000000000092,0.249999999999983,0.,      97P    231
2.99999999999908,0.249999999999983,0.,-3.00000000000092,              97P    232
0.249999999999983,0.1,2.99999999999908,0.249999999999983,0.1,         97P    233
2.99999999999908,-0.250000000000017,0.,2.99999999999908,              97P    234
-0.250000000000017,0.1,-3.00000000000092,-0.250000000000017,0.,       97P    235
-3.00000000000092,-0.250000000000017,0.1;                             97P    236
504,18,45,97,1,97,1,47,97,1,97,2,49,97,2,97,2,51,97,3,97,3,53,        99P    237
97,3,97,4,55,97,4,97,4,57,97,5,97,6,59,97,5,97,7,61,97,8,97,7,        99P    238
63,97,6,97,8,65,97,9,97,6,67,97,10,97,8,69,97,9,97,10,71,97,9,        99P    239
97,11,73,97,12,97,10,75,97,11,97,12,77,97,5,97,11,79,97,7,97,12;      99P    240
406,1,5HBody1;                                                       101P    241
314,62.7450980392157,62.7450980392157,62.7450980392157,13HSteel      103P    242
- Satin;                                                             103P    243
S      1G      3D    104P    243                                        T      1
