                                                                        S      1
,,9HLong_Pin ,9HLong_Pin ,7Hunknown,7Hunknown,32,38,7,99,15,,1.,1,4HINCHG      1
,1,0.08,15H20211218.204335,0.000393700787401575,10000.,7Hunknown,7HunknoG      2
wn,11,0,15H20211216.081520;                                             G      3
     186       1                                                00000000D      1
     186             -77       1       0                               0D      2
     514       2                                                00010000D      3
     514                       1       1                               0D      4
     510       3                                                00010000D      5
     510             -77       1       1                               0D      6
     510       4                                                00010000D      7
     510             -77       1       1                               0D      8
     510       5                                                00010000D      9
     510             -77       1       1                               0D     10
     510       6                                                00010000D     11
     510             -77       1       1                               0D     12
     510       7                                                00010000D     13
     510             -77       1       1                               0D     14
     510       8                                                00010000D     15
     510             -77       1       1                               0D     16
     510       9                                                00010000D     17
     510             -77       1       1                               0D     18
     508      10                                                00010000D     19
     508                       1       1                               0D     20
     508      11                                                00010000D     21
     508                       1       1                               0D     22
     508      12                                                00010000D     23
     508                       1       1                               0D     24
     508      13                                                00010000D     25
     508                       1       1                               0D     26
     508      14                                                00010000D     27
     508                       1       1                               0D     28
     508      15                                                00010000D     29
     508                       1       1                               0D     30
     508      16                                                00010000D     31
     508                       1       1                               0D     32
     508      17                                                00010000D     33
     508                       1       1                               0D     34
     508      18                                                00010000D     35
     508                       1       1                               0D     36
     126      19                                                00010000D     37
     126       0               9       0                               0D     38
     126      28                                                00010000D     39
     126       0              12       0                               0D     40
     126      40                                                00010000D     41
     126       0              10       0                               0D     42
     126      50                                                00010000D     43
     126       0              10       0                               0D     44
     126      60                                                00010000D     45
     126       0               8       0                               0D     46
     126      68                                                00010000D     47
     126       0               4       0                               0D     48
     126      72                                                00010000D     49
     126       0               8       0                               0D     50
     126      80                                                00010000D     51
     126       0              11       0                               0D     52
     126      91                                                00010000D     53
     126       0               5       0                               0D     54
     126      96                                                00010000D     55
     126       0               2       0                               0D     56
     128      98                                                00010000D     57
     128       0     -77       7       0                               0D     58
     128     105                                                00010000D     59
     128       0     -77      49       0                               0D     60
     128     154                                                00010000D     61
     128       0     -77      22       0                               0D     62
     128     176                                                00010000D     63
     128       0     -77      23       0                               0D     64
     128     199                                                00010000D     65
     128       0     -77       7       0                               0D     66
     128     206                                                00010000D     67
     128       0     -77      12       0                               0D     68
     128     218                                                00010000D     69
     128       0     -77       7       0                               0D     70
     502     225                                                00010000D     71
     502                       6       1                               0D     72
     504     231                                                00010001D     73
     504                       3       1                               0D     74
     406     234                                                00000000D     75
     406                       1      15                               0D     76
     314     235                                                00000200D     77
     314                       2       0                               0D     78
186,3,1,0,0,1,75;                                                      1P      1
514,7,5,1,7,1,9,1,11,1,13,1,15,1,17,1;                                 3P      2
510,57,2,1,19,21;                                                      5P      3
510,59,1,1,23;                                                         7P      4
510,61,1,1,25;                                                         9P      5
510,63,1,1,27;                                                        11P      6
510,65,2,1,29,31;                                                     13P      7
510,67,1,1,33;                                                        15P      8
510,69,1,1,35;                                                        17P      9
508,2,0,73,1,0,0,0,73,2,1,0;                                          19P     10
508,1,0,73,3,0,0;                                                     21P     11
508,2,0,73,1,1,0,0,73,2,0,0;                                          23P     12
508,4,0,73,4,0,0,0,73,5,0,0,0,73,6,0,0,0,73,6,1,0;                    25P     13
508,4,0,73,7,0,0,0,73,8,0,0,0,73,9,0,0,0,73,9,1,0;                    27P     14
508,2,0,73,7,1,0,0,73,8,1,0;                                          29P     15
508,2,0,73,4,1,0,0,73,5,1,0;                                          31P     16
508,5,0,73,4,0,0,0,73,5,0,0,0,73,10,1,0,0,73,3,1,0,0,73,10,0,0;       33P     17
508,2,0,73,4,1,0,0,73,5,1,0;                                          35P     18
126,6,2,0,0,0,0,0.,0.,0.,1.07726110437055,1.07726110437055,           37P     19
2.1545222087411,2.1545222087411,3.23178331311164,                     37P     20
3.23178331311164,3.23178331311164,1.,0.858411959286127,1.,            37P     21
0.858411959286127,1.,0.858411959286128,1.,-0.224765042473773,         37P     22
-0.0102798677891852,0.,-0.230907979333753,0.124032896981939,0.,       37P     23
-0.115533787221205,0.193072380236857,0.,-0.000159595108657467,        37P     24
0.262111863491774,0.,0.115298585177266,0.193212929836802,0.,          37P     25
0.230756765463189,0.124313996181829,0.,0.224777394257903,             37P     26
-0.0100061496404507,0.,0.,3.23178331311164,0.,0.,0.;                  37P     27
126,6,2,0,0,0,0,0.,0.,0.,1.07726110437055,1.07726110437055,           39P     28
2.1545222087411,2.1545222087411,3.23178331311164,                     39P     29
3.23178331311164,3.23178331311164,1.,0.858411959286128,1.,            39P     30
0.858411959286129,1.,0.858411959286129,1.,-0.224765042473773,         39P     31
-0.0102798677891852,5.45932897621579D-33,-0.230744413679059,          39P     32
-0.144600013611465,-1.64490247543217D-17,-0.115286233393136,          39P     33
-0.213498947266438,-2.48953183574051D-17,0.000171946892787595,        39P     34
-0.28239788092141,-3.33416119604885D-17,0.115546139005335,            39P     35
-0.213358397666493,-2.48953183574051D-17,0.230920331117883,           39P     36
-0.144318914411576,-1.64490247543218D-17,0.224777394257904,           39P     37
-0.0100061496404512,-2.41120363116197D-32,0.,3.23178331311164,        39P     38
0.,0.,0.;                                                             39P     39
126,8,2,0,1,0,0,-3.14159265358979,-3.14159265358979,                  41P     40
-3.14159265358979,-1.5707963267949,-1.5707963267949,0.,0.,            41P     41
1.5707963267949,1.5707963267949,3.14159265358979,                     41P     42
3.14159265358979,3.14159265358979,1.,0.707106781186548,1.,            41P     43
0.707106781186548,1.,0.707106781186548,1.,0.707106781186548,1.,       41P     44
-0.125,-1.53080849893419D-17,0.,-0.125,-0.125,0.,                     41P     45
7.65404249467096D-18,-0.125,0.,0.125,-0.125,0.,0.125,0.,0.,           41P     46
0.125,0.125,0.,7.65404249467096D-18,0.125,0.,-0.125,0.125,0.,         41P     47
-0.125,1.53080849893419D-17,0.,-3.14159265358979,                     41P     48
3.14159265358979,0.,0.,0.;                                            41P     49
126,6,2,0,0,0,0,-7.08074259714249,-7.08074259714249,                  43P     50
-7.08074259714249,-5.76769261595825,-5.76769261595825,                43P     51
-4.45464263477402,-4.45464263477402,-3.14159265358979,                43P     52
-3.14159265358979,-3.14159265358979,1.,0.79211804419206,1.,           43P     53
0.792118044192059,1.,0.792118044192059,1.,0.087307115245369,          43P     54
-0.0894565124936797,2.9,0.156237985237857,-0.0221818642580594,        43P     55
2.9,0.108756243635265,0.0616204468528663,2.9,0.061274502032673,       43P     56
0.145422757963792,2.9,-0.0318627489836635,0.120870861779025,2.9,      43P     57
-0.125,0.0963189655942571,2.9,-0.125,-1.53080849893419D-17,2.9,       43P     58
-7.08074259714249,-3.14159265358979,0.,0.,0.;                         43P     59
126,4,2,0,0,0,0,-3.14159265358979,-3.14159265358979,                  45P     60
-3.14159265358979,-1.96957497177635,-1.96957497177635,                45P     61
-0.7975572899629,-0.7975572899629,-0.7975572899629,1.,                45P     62
0.833154580396612,1.,0.833154580396612,1.,-0.125,                     45P     63
-1.53080849893419D-17,2.9,-0.125,-0.0829738257841918,2.9,             45P     64
-0.0485366387089634,-0.115191990619294,2.9,0.0279267225820732,        45P     65
-0.147410155454396,2.9,0.0873071152453689,-0.0894565124936797,        45P     66
2.9,-3.14159265358979,-0.7975572899629,0.,0.,0.;                      45P     67
126,2,2,0,0,0,0,-1.5707963267949,-1.5707963267949,                    47P     68
-1.5707963267949,0.,0.,0.,1.,0.707106781186552,1.,                    47P     69
-7.65404249467096D-18,0.,3.025,-0.125,0.,3.025,-0.125,0.,2.9,         47P     70
-1.5707963267949,0.,0.,0.,0.;                                         47P     71
126,4,2,0,0,0,0,-3.14159265358979,-3.14159265358979,                  49P     72
-3.14159265358979,-1.96957497177635,-1.96957497177635,                49P     73
-0.797557289962899,-0.797557289962899,-0.797557289962899,1.,          49P     74
0.833154580396611,1.,0.833154580396612,1.,0.157152807441664,          49P     75
-0.161021722488624,2.9,0.0502681006477317,-0.265338279817914,         49P     76
2.9,-0.0873659496761342,-0.20734558311473,2.9,-0.225,                 49P     77
-0.149352886411545,2.9,-0.225,7.65265636657481D-18,2.9,               49P     78
-3.14159265358979,-0.797557289962899,0.,0.,0.;                        49P     79
126,6,2,0,0,0,0,-0.797557289962899,-0.797557289962899,                51P     80
-0.797557289962899,0.515492691221331,0.515492691221331,               51P     81
1.82854267240556,1.82854267240556,3.14159265358979,                   51P     82
3.14159265358979,3.14159265358979,1.,0.792118044192059,1.,            51P     83
0.79211804419206,1.,0.79211804419206,1.,-0.225,                       51P     84
7.65265636657481D-18,2.9,-0.225,0.173374138069663,2.9,                51P     85
-0.0573529481705943,0.217567551202244,2.9,0.110294103658811,          51P     86
0.261760964334826,2.9,0.195761238543477,0.110916804335159,2.9,        51P     87
0.281228373428142,-0.0399273556645071,2.9,0.157152807441664,          51P     88
-0.161021722488623,2.9,-0.797557289962899,3.14159265358979,0.,        51P     89
0.,0.;                                                                51P     90
126,2,2,0,0,0,0,-1.5707963267949,-1.5707963267949,                    53P     91
-1.5707963267949,7.69468277488716D-17,7.69468277488716D-17,           53P     92
7.69468277488716D-17,1.,0.707106781186547,1.,                         53P     93
-1.37772764904077D-17,0.,3.125,-0.225,0.,3.125,-0.225,0.,2.9,         53P     94
-1.5707963267949,7.69468277488716D-17,0.,0.,0.;                       53P     95
126,1,1,0,0,1,0,-23.2,-23.2,0.,0.,1.,1.,-0.125,0.,2.9,-0.125,0.,      55P     96
0.,-23.2,0.,0.,0.,0.;                                                 55P     97
128,1,1,1,1,0,0,1,0,0,-0.587506267507732,-0.587506267507732,          57P     98
0.587537641039424,0.587537641039424,-0.394069565361372,               57P     99
-0.394069565361372,0.990985185448117,0.990985185448117,1.,1.,1.,      57P    100
1.,0.231314031905285,0.262505564279176,0.,-0.231301680121154,         57P    101
0.262505564279176,0.,0.231314031905285,-0.282791581708812,0.,         57P    102
-0.231301680121154,-0.282791581708812,0.,-0.587506267507732,          57P    103
0.587537641039424,-0.394069565361372,0.990985185448117;               57P    104
128,6,4,2,2,0,0,0,0,0,-1.61589165655582,-1.61589165655582,            59P    105
-1.61589165655582,-0.538630552185274,-0.538630552185274,              59P    106
0.538630552185274,0.538630552185274,1.61589165655582,                 59P    107
1.61589165655582,1.61589165655582,1.5707963267949,                    59P    108
1.5707963267949,1.5707963267949,3.14159265358979,                     59P    109
3.14159265358979,4.71238898038469,4.71238898038469,                   59P    110
4.71238898038469,1.,0.858411959286127,1.,0.858411959286129,1.,        59P    111
0.858411959286127,1.,0.707106781186548,0.606988917462851,             59P    112
0.707106781186548,0.606988917462852,0.707106781186548,                59P    113
0.606988917462851,0.707106781186548,1.,0.858411959286127,1.,          59P    114
0.858411959286129,1.,0.858411959286127,1.,0.707106781186548,          59P    115
0.606988917462851,0.707106781186548,0.606988917462852,                59P    116
0.707106781186548,0.606988917462851,0.707106781186548,1.,             59P    117
0.858411959286127,1.,0.858411959286129,1.,0.858411959286127,1.,       59P    118
-0.224765042473773,-0.0102798677891851,5.32278993565088D-20,          59P    119
-0.230907979333753,0.124032896981939,1.39253769331125D-18,            59P    120
-0.115533787221205,0.193072380236857,2.66139496782544D-20,            59P    121
-0.000159595108657218,0.262111863491774,0.,0.115298585177266,         59P    122
0.193212929836802,0.,0.23075676546319,0.124313996181829,              59P    123
-1.39253769331125D-18,0.224777394257904,-0.010006149640451,           59P    124
-5.32278993565088D-20,-0.224765042473773,-0.0102798677891851,         59P    125
-1.08741640753005D-17,-0.230907979333753,0.124032896981939,           59P    126
-0.134316480194732,-0.115533787221205,0.193072380236857,              59P    127
-0.203285701434391,-0.000159595108657218,0.262111863491774,           59P    128
-0.272254922674049,0.115298585177266,0.193212929836801,               59P    129
-0.203285701434391,0.23075676546319,0.124313996181829,                59P    130
-0.134316480194732,0.224777394257904,-0.010006149640451,              59P    131
-1.09806198740136D-17,-0.224765042473773,-0.0102798677891851,         59P    132
-1.09273919746571D-17,-0.230826196506406,-0.0102835583147628,         59P    133
-0.134316480194732,-0.11541001030717,-0.0102132835147904,             59P    134
-0.203285701434391,6.17589206529368D-6,-0.0101430087148181,           59P    135
-0.272254922674049,0.115422362091301,-0.0100727339148457,             59P    136
-0.203285701434391,0.230838548290537,-0.0100024591148733,             59P    137
-0.134316480194732,0.224777394257904,-0.010006149640451,              59P    138
-1.09273919746571D-17,-0.224765042473773,-0.0102798677891852,         59P    139
-1.09806198740136D-17,-0.230744413679059,-0.144600013611465,          59P    140
-0.134316480194732,-0.115286233393136,-0.213498947266438,             59P    141
-0.203285701434391,0.000171946892787806,-0.28239788092141,            59P    142
-0.272254922674049,0.115546139005336,-0.213358397666493,              59P    143
-0.203285701434391,0.230920331117883,-0.144318914411575,              59P    144
-0.134316480194732,0.224777394257904,-0.010006149640451,              59P    145
-1.08741640753005D-17,-0.224765042473773,-0.0102798677891852,         59P    146
-5.32278993565088D-20,-0.230744413679059,-0.144600013611465,          59P    147
-1.39253769331125D-18,-0.115286233393136,-0.213498947266438,          59P    148
-2.66139496782544D-20,0.000171946892787806,-0.28239788092141,0.,      59P    149
0.115546139005336,-0.213358397666493,0.,0.230920331117883,            59P    150
-0.144318914411575,1.39253769331125D-18,0.224777394257904,            59P    151
-0.010006149640451,5.32278993565088D-20,-1.61589165655582,            59P    152
1.61589165655582,1.5707963267949,4.71238898038469;                    59P    153
128,2,8,2,2,0,1,0,0,1,0.,0.,0.,1.5707963267949,1.5707963267949,       61P    154
1.5707963267949,-3.14159265358979,-3.14159265358979,                  61P    155
-3.14159265358979,-1.5707963267949,-1.5707963267949,0.,0.,            61P    156
1.5707963267949,1.5707963267949,3.14159265358979,                     61P    157
3.14159265358979,3.14159265358979,1.,0.707106781186552,1.,            61P    158
0.707106781186548,0.500000000000003,0.707106781186548,1.,             61P    159
0.707106781186552,1.,0.707106781186548,0.500000000000003,             61P    160
0.707106781186548,1.,0.707106781186552,1.,0.707106781186548,          61P    161
0.500000000000003,0.707106781186548,1.,0.707106781186552,1.,          61P    162
0.707106781186548,0.500000000000003,0.707106781186548,1.,             61P    163
0.707106781186552,1.,-0.125,0.,2.9,-0.125,0.,3.025,                   61P    164
-7.65404249467096D-18,0.,3.025,-0.125,-0.125,2.9,-0.125,-0.125,       61P    165
3.025,-7.65404249467095D-18,-7.65404249467095D-18,3.025,0.,           61P    166
-0.125,2.9,0.,-0.125,3.025,0.,-7.65404249467096D-18,3.025,0.125,      61P    167
-0.125,2.9,0.125,-0.125,3.025,7.65404249467095D-18,                   61P    168
-7.65404249467095D-18,3.025,0.125,0.,2.9,0.125,0.,3.025,              61P    169
7.65404249467096D-18,0.,3.025,0.125,0.125,2.9,0.125,0.125,3.025,      61P    170
7.65404249467095D-18,7.65404249467095D-18,3.025,0.,0.125,2.9,0.,      61P    171
0.125,3.025,0.,7.65404249467096D-18,3.025,-0.125,0.125,2.9,           61P    172
-0.125,0.125,3.025,-7.65404249467095D-18,7.65404249467095D-18,        61P    173
3.025,-0.125,0.,2.9,-0.125,0.,3.025,-7.65404249467096D-18,0.,         61P    174
3.025,0.,1.5707963267949,-3.14159265358979,3.14159265358979;          61P    175
128,2,8,2,2,0,1,0,0,1,-7.69468277488716D-17,                          63P    176
-7.69468277488716D-17,-7.69468277488716D-17,1.5707963267949,          63P    177
1.5707963267949,1.5707963267949,-3.14159265358979,                    63P    178
-3.14159265358979,-3.14159265358979,-1.5707963267949,                 63P    179
-1.5707963267949,0.,0.,1.5707963267949,1.5707963267949,               63P    180
3.14159265358979,3.14159265358979,3.14159265358979,1.,                63P    181
0.707106781186547,1.,0.707106781186548,0.5,0.707106781186548,1.,      63P    182
0.707106781186547,1.,0.707106781186548,0.5,0.707106781186548,1.,      63P    183
0.707106781186547,1.,0.707106781186548,0.5,0.707106781186548,1.,      63P    184
0.707106781186547,1.,0.707106781186548,0.5,0.707106781186548,1.,      63P    185
0.707106781186547,1.,-1.37772764904077D-17,0.,3.125,-0.225,0.,        63P    186
3.125,-0.225,0.,2.9,-1.37772764904077D-17,-1.37772764904077D-17,      63P    187
3.125,-0.225,-0.225,3.125,-0.225,-0.225,2.9,0.,                       63P    188
-1.37772764904077D-17,3.125,0.,-0.225,3.125,0.,-0.225,2.9,            63P    189
1.37772764904077D-17,-1.37772764904077D-17,3.125,0.225,-0.225,        63P    190
3.125,0.225,-0.225,2.9,1.37772764904077D-17,0.,3.125,0.225,0.,        63P    191
3.125,0.225,0.,2.9,1.37772764904077D-17,1.37772764904077D-17,         63P    192
3.125,0.225,0.225,3.125,0.225,0.225,2.9,0.,1.37772764904077D-17,      63P    193
3.125,0.,0.225,3.125,0.,0.225,2.9,-1.37772764904077D-17,              63P    194
1.37772764904077D-17,3.125,-0.225,0.225,3.125,-0.225,0.225,2.9,       63P    195
-1.37772764904077D-17,0.,3.125,-0.225,0.,3.125,-0.225,0.,2.9,         63P    196
-7.69468277488716D-17,1.5707963267949,-3.14159265358979,              63P    197
3.14159265358979;                                                     63P    198
128,1,1,1,1,0,0,1,0,0,-0.801486003056567,-0.801486003056567,          65P    199
0.486334065450914,0.486334065450914,-0.747125261849905,               65P    200
-0.747125261849905,0.593706818298053,0.593706818298053,1.,1.,1.,      65P    201
1.,-0.225393700787402,0.262154665122227,2.9,0.281622074215543,        65P    202
0.262154665122227,2.9,-0.225393700787402,-0.265731980605315,2.9,      65P    203
0.281622074215543,-0.265731980605315,2.9,-0.801486003056567,          65P    204
0.486334065450914,-0.747125261849905,0.593706818298053;               65P    205
128,1,8,1,2,0,1,0,0,1,0.,0.,23.2,23.2,-3.14159265358979,              67P    206
-3.14159265358979,-3.14159265358979,-1.5707963267949,                 67P    207
-1.5707963267949,0.,0.,1.5707963267949,1.5707963267949,               67P    208
3.14159265358979,3.14159265358979,3.14159265358979,1.,1.,             67P    209
0.707106781186548,0.707106781186548,1.,1.,0.707106781186548,          67P    210
0.707106781186548,1.,1.,0.707106781186548,0.707106781186548,1.,       67P    211
1.,0.707106781186548,0.707106781186548,1.,1.,-0.125,0.,2.9,           67P    212
-0.125,0.,0.,-0.125,-0.125,2.9,-0.125,-0.125,0.,0.,-0.125,2.9,        67P    213
0.,-0.125,0.,0.125,-0.125,2.9,0.125,-0.125,0.,0.125,0.,2.9,           67P    214
0.125,0.,0.,0.125,0.125,2.9,0.125,0.125,0.,0.,0.125,2.9,0.,           67P    215
0.125,0.,-0.125,0.125,2.9,-0.125,0.125,0.,-0.125,0.,2.9,-0.125,       67P    216
0.,0.,0.,23.2,-3.14159265358979,3.14159265358979;                     67P    217
128,1,1,1,1,0,0,1,0,0,-0.3185,-0.3185,0.397844482504156,              69P    218
0.397844482504156,-0.375421794854167,-0.375421794854167,              69P    219
0.370373805228032,0.370373805228032,1.,1.,1.,1.,                      69P    220
-0.125393700787402,-0.147803856241798,2.9,0.156631686025258,          69P    221
-0.147803856241798,2.9,-0.125393700787402,0.145816458751194,2.9,      69P    222
0.156631686025258,0.145816458751194,2.9,-0.3185,                      69P    223
0.397844482504156,-0.375421794854167,0.370373805228032;               69P    224
502,9,-0.224765042473773,-0.0102798677891852,0.,                      71P    225
0.224777394257903,-0.0100061496404508,0.,-0.125,                      71P    226
-1.53080849893419D-17,0.,0.0873071152453689,-0.0894565124936797,      71P    227
2.9,-0.125,0.,2.9,-7.65404249467096D-18,0.,3.025,                     71P    228
0.157152807441664,-0.161021722488623,2.9,-0.225,0.,2.9,               71P    229
-1.37772764904077D-17,0.,3.125;                                       71P    230
504,10,37,71,1,71,2,39,71,1,71,2,41,71,3,71,3,43,71,4,71,5,45,        73P    231
71,5,71,4,47,71,6,71,5,49,71,7,71,8,51,71,8,71,7,53,71,9,71,8,        73P    232
55,71,5,71,3;                                                         73P    233
406,1,5HBody1;                                                        75P    234
314,62.7450980392157,62.7450980392157,62.7450980392157,13HSteel       77P    235
- Satin;                                                              77P    236
S      1G      3D     78P    236                                        T      1
