                                                                        S      1
,,6HPivot ,6HPivot ,7Hunknown,7Hunknown,32,38,7,99,15,,1.,1,4HINCH,1,   G      1
0.08,15H20211218.204405,0.000393700787401575,10000.,7Hunknown,7Hunknown,G      2
11,0,15H20211217.165830;                                                G      3
     186       1                                                00000000D      1
     186            -189       1       0                               0D      2
     514       2                                                00010000D      3
     514                       2       1                               0D      4
     510       4                                                00010000D      5
     510            -189       1       1                               0D      6
     510       5                                                00010000D      7
     510            -189       1       1                               0D      8
     510       6                                                00010000D      9
     510            -189       1       1                               0D     10
     510       7                                                00010000D     11
     510            -189       1       1                               0D     12
     510       8                                                00010000D     13
     510            -189       1       1                               0D     14
     510       9                                                00010000D     15
     510            -189       1       1                               0D     16
     510      10                                                00010000D     17
     510            -189       1       1                               0D     18
     510      11                                                00010000D     19
     510            -189       1       1                               0D     20
     510      12                                                00010000D     21
     510            -189       1       1                               0D     22
     510      13                                                00010000D     23
     510            -189       1       1                               0D     24
     510      14                                                00010000D     25
     510            -189       1       1                               0D     26
     510      15                                                00010000D     27
     510            -189       1       1                               0D     28
     510      16                                                00010000D     29
     510            -189       1       1                               0D     30
     510      17                                                00010000D     31
     510            -189       1       1                               0D     32
     510      18                                                00010000D     33
     510            -189       1       1                               0D     34
     510      19                                                00010000D     35
     510            -189       1       1                               0D     36
     510      20                                                00010000D     37
     510            -189       1       1                               0D     38
     508      21                                                00010000D     39
     508                       1       1                               0D     40
     508      22                                                00010000D     41
     508                       1       1                               0D     42
     508      23                                                00010000D     43
     508                       1       1                               0D     44
     508      24                                                00010000D     45
     508                       1       1                               0D     46
     508      25                                                00010000D     47
     508                       1       1                               0D     48
     508      26                                                00010000D     49
     508                       1       1                               0D     50
     508      27                                                00010000D     51
     508                       1       1                               0D     52
     508      28                                                00010000D     53
     508                       1       1                               0D     54
     508      29                                                00010000D     55
     508                       1       1                               0D     56
     508      30                                                00010000D     57
     508                       1       1                               0D     58
     508      31                                                00010000D     59
     508                       1       1                               0D     60
     508      32                                                00010000D     61
     508                       1       1                               0D     62
     508      33                                                00010000D     63
     508                       1       1                               0D     64
     508      34                                                00010000D     65
     508                       2       1                               0D     66
     508      36                                                00010000D     67
     508                       1       1                               0D     68
     508      37                                                00010000D     69
     508                       1       1                               0D     70
     508      38                                                00010000D     71
     508                       1       1                               0D     72
     508      39                                                00010000D     73
     508                       1       1                               0D     74
     508      40                                                00010000D     75
     508                       1       1                               0D     76
     508      41                                                00010000D     77
     508                       1       1                               0D     78
     508      42                                                00010000D     79
     508                       1       1                               0D     80
     508      43                                                00010000D     81
     508                       1       1                               0D     82
     508      44                                                00010000D     83
     508                       1       1                               0D     84
     126      45                                                00010000D     85
     126       0               9       0                               0D     86
     126      54                                                00010000D     87
     126       0               3       0                               0D     88
     126      57                                                00010000D     89
     126       0              10       0                               0D     90
     126      67                                                00010000D     91
     126       0               9       0                               0D     92
     126      76                                                00010000D     93
     126       0               3       0                               0D     94
     126      79                                                00010000D     95
     126       0               2       0                               0D     96
     126      81                                                00010000D     97
     126       0               2       0                               0D     98
     126      83                                                00010000D     99
     126       0               2       0                               0D    100
     126      85                                                00010000D    101
     126       0               2       0                               0D    102
     126      87                                                00010000D    103
     126       0               9       0                               0D    104
     126      96                                                00010000D    105
     126       0               3       0                               0D    106
     126      99                                                00010000D    107
     126       0               2       0                               0D    108
     126     101                                                00010000D    109
     126       0               2       0                               0D    110
     126     103                                                00010000D    111
     126       0               2       0                               0D    112
     126     105                                                00010000D    113
     126       0               2       0                               0D    114
     126     107                                                00010000D    115
     126       0               2       0                               0D    116
     126     109                                                00010000D    117
     126       0               2       0                               0D    118
     126     111                                                00010000D    119
     126       0              10       0                               0D    120
     126     121                                                00010000D    121
     126       0               2       0                               0D    122
     126     123                                                00010000D    123
     126       0               2       0                               0D    124
     126     125                                                00010000D    125
     126       0              10       0                               0D    126
     126     135                                                00010000D    127
     126       0              10       0                               0D    128
     126     145                                                00010000D    129
     126       0               8       0                               0D    130
     126     153                                                00010000D    131
     126       0               2       0                               0D    132
     126     155                                                00010000D    133
     126       0               9       0                               0D    134
     126     164                                                00010000D    135
     126       0              11       0                               0D    136
     126     175                                                00010000D    137
     126       0              10       0                               0D    138
     126     185                                                00010000D    139
     126       0               4       0                               0D    140
     126     189                                                00010000D    141
     126       0               8       0                               0D    142
     126     197                                                00010000D    143
     126       0              11       0                               0D    144
     126     208                                                00010000D    145
     126       0               5       0                               0D    146
     126     213                                                00010000D    147
     126       0               2       0                               0D    148
     128     215                                                00010000D    149
     128       0    -189      16       0                               0D    150
     128     231                                                00010000D    151
     128       0    -189      16       0                               0D    152
     128     247                                                00010000D    153
     128       0    -189       5       0                               0D    154
     128     252                                                00010000D    155
     128       0    -189      16       0                               0D    156
     128     268                                                00010000D    157
     128       0    -189       5       0                               0D    158
     128     273                                                00010000D    159
     128       0    -189       5       0                               0D    160
     128     278                                                00010000D    161
     128       0    -189       5       0                               0D    162
     128     283                                                00010000D    163
     128       0    -189       5       0                               0D    164
     128     288                                                00010000D    165
     128       0    -189       5       0                               0D    166
     128     293                                                00010000D    167
     128       0    -189      12       0                               0D    168
     128     305                                                00010000D    169
     128       0    -189       7       0                               0D    170
     128     312                                                00010000D    171
     128       0    -189      47       0                               0D    172
     128     359                                                00010000D    173
     128       0    -189      22       0                               0D    174
     128     381                                                00010000D    175
     128       0    -189      23       0                               0D    176
     128     404                                                00010000D    177
     128       0    -189       7       0                               0D    178
     128     411                                                00010000D    179
     128       0    -189      12       0                               0D    180
     128     423                                                00010000D    181
     128       0    -189       7       0                               0D    182
     502     430                                                00010000D    183
     502                      10       1                               0D    184
     504     440                                                00010001D    185
     504                       9       1                               0D    186
     406     449                                                00000000D    187
     406                       1      15                               0D    188
     314     450                                                00000200D    189
     314                       2       0                               0D    190
186,3,1,0,0,1,187;                                                     1P      1
514,17,5,1,7,1,9,1,11,1,13,1,15,1,17,1,19,1,21,1,23,1,25,1,27,1,       3P      2
29,1,31,1,33,1,35,1,37,1;                                              3P      3
510,149,1,1,39;                                                        5P      4
510,151,1,1,41;                                                        7P      5
510,153,2,1,43,45;                                                     9P      6
510,155,1,1,47;                                                       11P      7
510,157,2,1,49,51;                                                    13P      8
510,159,2,1,53,55;                                                    15P      9
510,161,2,1,57,59;                                                    17P     10
510,163,1,1,61;                                                       19P     11
510,165,1,1,63;                                                       21P     12
510,167,1,1,65;                                                       23P     13
510,169,2,1,67,69;                                                    25P     14
510,171,1,1,71;                                                       27P     15
510,173,1,1,73;                                                       29P     16
510,175,1,1,75;                                                       31P     17
510,177,2,1,77,79;                                                    33P     18
510,179,1,1,81;                                                       35P     19
510,181,1,1,83;                                                       37P     20
508,4,0,185,1,1,0,0,185,2,1,0,0,185,3,1,0,0,185,2,0,0;                39P     21
508,4,0,185,4,0,0,0,185,5,1,0,0,185,3,0,0,0,185,5,0,0;                41P     22
508,4,0,185,6,0,0,0,185,7,0,0,0,185,8,0,0,0,185,9,0,0;                43P     23
508,1,0,185,1,0,0;                                                    45P     24
508,4,0,185,10,1,0,0,185,11,1,0,0,185,4,1,0,0,185,11,0,0;             47P     25
508,4,0,185,12,1,0,0,185,13,0,0,0,185,14,0,0,0,185,15,0,0;            49P     26
508,1,0,185,10,0,0;                                                   51P     27
508,4,0,185,16,1,0,0,185,9,1,0,0,185,17,1,0,0,185,15,1,0;             53P     28
508,1,0,185,18,0,0;                                                   55P     29
508,4,0,185,19,1,0,0,185,13,1,0,0,185,20,1,0,0,185,7,1,0;             57P     30
508,1,0,185,21,0,0;                                                   59P     31
508,4,0,185,8,1,0,0,185,20,0,0,0,185,12,0,0,0,185,17,0,0;             61P     32
508,4,0,185,14,1,0,0,185,19,0,0,0,185,6,1,0,0,185,16,0,0;             63P     33
508,5,0,185,22,0,0,0,185,23,0,0,0,185,24,1,0,0,185,21,1,0,0,185,      65P     34
24,0,0;                                                               65P     35
508,2,0,185,25,0,0,0,185,26,1,0;                                      67P     36
508,1,0,185,27,0,0;                                                   69P     37
508,2,0,185,25,1,0,0,185,26,0,0;                                      71P     38
508,4,0,185,22,0,0,0,185,23,0,0,0,185,28,0,0,0,185,28,1,0;            73P     39
508,4,0,185,29,0,0,0,185,30,0,0,0,185,31,0,0,0,185,31,1,0;            75P     40
508,2,0,185,29,1,0,0,185,30,1,0;                                      77P     41
508,2,0,185,22,1,0,0,185,23,1,0;                                      79P     42
508,4,0,185,18,1,0,0,185,32,1,0,0,185,27,1,0,0,185,32,0,0;            81P     43
508,2,0,185,22,1,0,0,185,23,1,0;                                      83P     44
126,8,2,0,1,0,0,-3.14159265358979,-3.14159265358979,                  85P     45
-3.14159265358979,-1.5707963267949,-1.5707963267949,0.,0.,            85P     46
1.5707963267949,1.5707963267949,3.14159265358979,                     85P     47
3.14159265358979,3.14159265358979,1.,0.707106781186549,1.,            85P     48
0.707106781186549,1.,0.707106781186547,1.,0.707106781186547,1.,       85P     49
-0.5,-0.2375,1.45,-0.5,-0.2375,1.6875,-0.5,1.01961816537131D-16,      85P     50
1.6875,-0.5,0.2375,1.6875,-0.5,0.2375,1.45,-0.5,0.2375,1.2125,        85P     51
-0.5,1.01961816537131D-16,1.2125,-0.5,-0.2375,1.2125,-0.5,            85P     52
-0.2375,1.45,-3.14159265358979,3.14159265358979,0.,0.,0.;             85P     53
126,1,1,0,0,1,0,-0.16637806616154,-0.16637806616154,                  87P     54
0.166378066161541,0.166378066161541,1.,1.,-0.5,-0.2375,1.45,          87P     55
-0.45,-0.1875,1.45,-0.16637806616154,0.166378066161541,0.,0.,0.;      87P     56
126,8,2,0,1,0,0,-3.14159265358979,-3.14159265358979,                  89P     57
-3.14159265358979,-1.5707963267949,-1.5707963267949,0.,0.,            89P     58
1.5707963267949,1.5707963267949,3.14159265358979,                     89P     59
3.14159265358979,3.14159265358979,1.,0.707106781186549,1.,            89P     60
0.707106781186549,1.,0.707106781186546,1.,0.707106781186546,1.,       89P     61
-0.45,-0.1875,1.45,-0.45,-0.1875,1.2625,-0.45,                        89P     62
9.89001995392628D-17,1.2625,-0.45,0.1875,1.2625,-0.45,0.1875,         89P     63
1.45,-0.45,0.1875,1.6375,-0.45,9.89001995392628D-17,1.6375,           89P     64
-0.45,-0.1875,1.6375,-0.45,-0.1875,1.45,-3.14159265358979,            89P     65
3.14159265358979,0.,0.,0.;                                            89P     66
126,8,2,0,1,0,0,-3.14159265358979,-3.14159265358979,                  91P     67
-3.14159265358979,-1.5707963267949,-1.5707963267949,0.,0.,            91P     68
1.5707963267949,1.5707963267949,3.14159265358979,                     91P     69
3.14159265358979,3.14159265358979,1.,0.707106781186546,1.,            91P     70
0.707106781186546,1.,0.707106781186549,1.,0.707106781186549,1.,       91P     71
0.45,-0.1875,1.45,0.45,-0.1875,1.6375,0.45,9.89001995392628D-17,      91P     72
1.6375,0.45,0.1875,1.6375,0.45,0.1875,1.45,0.45,0.1875,1.2625,        91P     73
0.45,9.89001995392628D-17,1.2625,0.45,-0.1875,1.2625,0.45,            91P     74
-0.1875,1.45,-3.14159265358979,3.14159265358979,0.,0.,0.;             91P     75
126,1,1,0,0,1,0,0.266666666666667,0.266666666666667,                  93P     76
5.06666666666667,5.06666666666667,1.,1.,0.45,-0.1875,1.45,-0.45,      93P     77
-0.1875,1.45,0.266666666666667,5.06666666666667,0.,0.,0.;             93P     78
126,1,1,0,0,1,0,-1.27,-1.27,1.27,1.27,1.,1.,-0.5,-0.5,1.95,-0.5,      95P     79
-0.5,0.95,-1.27,1.27,0.,0.,0.;                                        95P     80
126,1,1,0,0,1,0,-2.54,-2.54,0.,0.,1.,1.,-0.5,0.5,1.95,-0.5,-0.5,      97P     81
1.95,-2.54,0.,0.,0.,0.;                                               97P     82
126,1,1,0,0,1,0,-1.27,-1.27,1.27,1.27,1.,1.,-0.5,0.5,0.95,-0.5,       99P     83
0.5,1.95,-1.27,1.27,0.,0.,0.;                                         99P     84
126,1,1,0,0,1,0,0.,0.,2.54,2.54,1.,1.,-0.5,-0.5,0.95,-0.5,0.5,       101P     85
0.95,0.,2.54,0.,0.,0.;                                               101P     86
126,8,2,0,1,0,0,-3.14159265358979,-3.14159265358979,                 103P     87
-3.14159265358979,-1.5707963267949,-1.5707963267949,0.,0.,           103P     88
1.5707963267949,1.5707963267949,3.14159265358979,                    103P     89
3.14159265358979,3.14159265358979,1.,0.707106781186547,1.,           103P     90
0.707106781186547,1.,0.707106781186549,1.,0.707106781186549,1.,      103P     91
0.5,-0.2375,1.45,0.5,-0.2375,1.2125,0.5,1.01961816537131D-16,        103P     92
1.2125,0.5,0.2375,1.2125,0.5,0.2375,1.45,0.5,0.2375,1.6875,0.5,      103P     93
1.01961816537131D-16,1.6875,0.5,-0.2375,1.6875,0.5,-0.2375,1.45,     103P     94
-3.14159265358979,3.14159265358979,0.,0.,0.;                         103P     95
126,1,1,0,0,1,0,-0.166378066161541,-0.166378066161541,               105P     96
0.166378066161541,0.166378066161541,1.,1.,0.5,-0.2375,1.45,0.45,     105P     97
-0.1875,1.45,-0.166378066161541,0.166378066161541,0.,0.,0.;          105P     98
126,1,1,0,0,1,0,-1.27,-1.27,1.27,1.27,1.,1.,0.5,0.5,0.95,0.5,        107P     99
0.5,1.95,-1.27,1.27,0.,0.,0.;                                        107P    100
126,1,1,0,0,1,0,-2.54,-2.54,0.,0.,1.,1.,0.5,-0.5,1.95,0.5,0.5,       109P    101
1.95,-2.54,0.,0.,0.,0.;                                              109P    102
126,1,1,0,0,1,0,-1.27,-1.27,1.27,1.27,1.,1.,0.5,-0.5,0.95,0.5,       111P    103
-0.5,1.95,-1.27,1.27,0.,0.,0.;                                       111P    104
126,1,1,0,0,1,0,0.,0.,2.54,2.54,1.,1.,0.5,0.5,0.95,0.5,-0.5,         113P    105
0.95,0.,2.54,0.,0.,0.;                                               113P    106
126,1,1,0,0,1,0,0.,0.,2.54,2.54,1.,1.,0.5,-0.5,0.95,-0.5,-0.5,       115P    107
0.95,0.,2.54,0.,0.,0.;                                               115P    108
126,1,1,0,0,1,0,0.,0.,2.54,2.54,1.,1.,-0.5,0.5,0.95,0.5,0.5,         117P    109
0.95,0.,2.54,0.,0.,0.;                                               117P    110
126,8,2,0,1,0,0,-3.14159265358979,-3.14159265358979,                 119P    111
-3.14159265358979,-1.5707963267949,-1.5707963267949,0.,0.,           119P    112
1.5707963267949,1.5707963267949,3.14159265358979,                    119P    113
3.14159265358979,3.14159265358979,1.,0.707106781186548,1.,           119P    114
0.707106781186548,1.,0.707106781186548,1.,0.707106781186548,1.,      119P    115
-0.125,1.53080849893419D-17,0.95,-0.125,0.125,0.95,                  119P    116
7.65404249467096D-18,0.125,0.95,0.125,0.125,0.95,0.125,0.,0.95,      119P    117
0.125,-0.125,0.95,7.65404249467096D-18,-0.125,0.95,-0.125,           119P    118
-0.125,0.95,-0.125,-1.53080849893419D-17,0.95,-3.14159265358979,     119P    119
3.14159265358979,0.,0.,0.;                                           119P    120
126,1,1,0,0,1,0,-2.54,-2.54,0.,0.,1.,1.,-0.5,-0.5,1.95,0.5,-0.5,     121P    121
1.95,-2.54,0.,0.,0.,0.;                                              121P    122
126,1,1,0,0,1,0,-2.54,-2.54,0.,0.,1.,1.,0.5,0.5,1.95,-0.5,0.5,       123P    123
1.95,-2.54,0.,0.,0.,0.;                                              123P    124
126,8,2,0,1,0,0,-3.14159265358979,-3.14159265358979,                 125P    125
-3.14159265358979,-1.5707963267949,-1.5707963267949,0.,0.,           125P    126
1.5707963267949,1.5707963267949,3.14159265358979,                    125P    127
3.14159265358979,3.14159265358979,1.,0.707106781186548,1.,           125P    128
0.707106781186548,1.,0.707106781186548,1.,0.707106781186548,1.,      125P    129
-0.125,-1.53080849893419D-17,1.95,-0.125,-0.125,1.95,                125P    130
7.65404249467096D-18,-0.125,1.95,0.125,-0.125,1.95,0.125,0.,         125P    131
1.95,0.125,0.125,1.95,7.65404249467096D-18,0.125,1.95,-0.125,        125P    132
0.125,1.95,-0.125,1.53080849893419D-17,1.95,-3.14159265358979,       125P    133
3.14159265358979,0.,0.,0.;                                           125P    134
126,6,2,0,0,0,0,-7.08074259714249,-7.08074259714249,                 127P    135
-7.08074259714249,-5.76769261595825,-5.76769261595825,               127P    136
-4.45464263477402,-4.45464263477402,-3.14159265358979,               127P    137
-3.14159265358979,-3.14159265358979,1.,0.79211804419206,1.,          127P    138
0.792118044192059,1.,0.792118044192059,1.,0.087307115245369,         127P    139
-0.0894565124936797,2.9,0.156237985237857,-0.0221818642580594,       127P    140
2.9,0.108756243635265,0.0616204468528663,2.9,0.061274502032673,      127P    141
0.145422757963792,2.9,-0.0318627489836635,0.120870861779025,2.9,     127P    142
-0.125,0.0963189655942571,2.9,-0.125,-1.53080849893419D-17,2.9,      127P    143
-7.08074259714249,-3.14159265358979,0.,0.,0.;                        127P    144
126,4,2,0,0,0,0,-3.14159265358979,-3.14159265358979,                 129P    145
-3.14159265358979,-1.96957497177635,-1.96957497177635,               129P    146
-0.7975572899629,-0.7975572899629,-0.7975572899629,1.,               129P    147
0.833154580396612,1.,0.833154580396612,1.,-0.125,                    129P    148
-1.53080849893419D-17,2.9,-0.125,-0.0829738257841918,2.9,            129P    149
-0.0485366387089634,-0.115191990619294,2.9,0.0279267225820732,       129P    150
-0.147410155454396,2.9,0.0873071152453689,-0.0894565124936797,       129P    151
2.9,-3.14159265358979,-0.7975572899629,0.,0.,0.;                     129P    152
126,1,1,0,0,1,0,-23.2,-23.2,-15.6,-15.6,1.,1.,-0.125,0.,2.9,         131P    153
-0.125,0.,1.95,-23.2,-15.6,0.,0.,0.;                                 131P    154
126,6,2,0,0,0,0,0.,0.,0.,1.0776535659682,1.0776535659682,            133P    155
2.1553071319364,2.1553071319364,3.2329606979046,3.2329606979046,     133P    156
3.2329606979046,1.,0.858311284027927,1.,0.858311284027928,1.,        133P    157
0.858311284027927,1.,-0.224758951846975,-0.010412183471752,0.,       133P    158
-0.230983729659631,0.123956802673055,0.,-0.115571671743965,          133P    159
0.193049705232371,0.,-0.000159613828298221,0.262142607791687,0.,     133P    160
0.115336497284714,0.193190300983495,0.,0.230832608397726,            133P    161
0.124237994175302,0.,0.224771464764748,-0.0101384726418479,0.,       133P    162
0.,3.2329606979046,0.,0.,0.;                                         133P    163
126,6,2,0,0,0,0,0.,0.,0.,1.0776535659682,1.0776535659682,            135P    164
2.1553071319364,2.1553071319364,3.2329606979046,3.2329606979046,     135P    165
3.2329606979046,1.,0.858311284027927,1.,0.858311284027924,1.,        135P    166
0.858311284027925,1.,-0.224758951846975,-0.0104121834717519,         135P    167
5.00438489486447D-33,-0.230820095479952,-0.144788650288902,          135P    168
-1.645591598817D-17,-0.11532398436694,-0.213740957097095,            135P    169
-2.49087487445353D-17,0.000172126746071381,-0.282693263905287,       135P    170
-3.33615815009006D-17,0.115584184661738,-0.213600361345972,          135P    171
-2.49087487445353D-17,0.230996242577405,-0.144507458786656,          135P    172
-1.64559159881701D-17,0.224771464764748,-0.010138472641849,          135P    173
-7.03646845823368D-32,0.,3.2329606979046,0.,0.,0.;                   135P    174
126,8,2,0,1,0,0,-3.14159265358979,-3.14159265358979,                 137P    175
-3.14159265358979,-1.5707963267949,-1.5707963267949,0.,0.,           137P    176
1.5707963267949,1.5707963267949,3.14159265358979,                    137P    177
3.14159265358979,3.14159265358979,1.,0.707106781186548,1.,           137P    178
0.707106781186548,1.,0.707106781186548,1.,0.707106781186548,1.,      137P    179
-0.125,-1.53080849893419D-17,0.,-0.125,-0.125,0.,                    137P    180
7.65404249467096D-18,-0.125,0.,0.125,-0.125,0.,0.125,0.,0.,          137P    181
0.125,0.125,0.,7.65404249467096D-18,0.125,0.,-0.125,0.125,0.,        137P    182
-0.125,1.53080849893419D-17,0.,-3.14159265358979,                    137P    183
3.14159265358979,0.,0.,0.;                                           137P    184
126,2,2,0,0,0,0,-1.5707963267949,-1.5707963267949,                   139P    185
-1.5707963267949,0.,0.,0.,1.,0.707106781186552,1.,                   139P    186
-7.65404249467096D-18,0.,3.025,-0.125,0.,3.025,-0.125,0.,2.9,        139P    187
-1.5707963267949,0.,0.,0.,0.;                                        139P    188
126,4,2,0,0,0,0,-3.14159265358979,-3.14159265358979,                 141P    189
-3.14159265358979,-1.96957497177635,-1.96957497177635,               141P    190
-0.797557289962901,-0.797557289962901,-0.797557289962901,1.,         141P    191
0.833154580396611,1.,0.833154580396612,1.,0.157152807441664,         141P    192
-0.161021722488624,2.9,0.0502681006477314,-0.265338279817914,        141P    193
2.9,-0.0873659496761344,-0.20734558311473,2.9,-0.225,                141P    194
-0.149352886411545,2.9,-0.225,7.65265636657454D-18,2.9,              141P    195
-3.14159265358979,-0.797557289962901,0.,0.,0.;                       141P    196
126,6,2,0,0,0,0,-0.797557289962901,-0.797557289962901,               143P    197
-0.797557289962901,0.515492691221331,0.515492691221331,              143P    198
1.82854267240556,1.82854267240556,3.14159265358979,                  143P    199
3.14159265358979,3.14159265358979,1.,0.79211804419206,1.,            143P    200
0.792118044192059,1.,0.79211804419206,1.,-0.225,                     143P    201
7.65265636657454D-18,2.9,-0.225,0.173374138069663,2.9,               143P    202
-0.0573529481705942,0.217567551202244,2.9,0.110294103658812,         143P    203
0.261760964334825,2.9,0.195761238543477,0.110916804335159,2.9,       143P    204
0.281228373428142,-0.0399273556645075,2.9,0.157152807441664,         143P    205
-0.161021722488624,2.9,-0.797557289962901,3.14159265358979,0.,       143P    206
0.,0.;                                                               143P    207
126,2,2,0,0,0,0,-1.5707963267949,-1.5707963267949,                   145P    208
-1.5707963267949,7.69468277488716D-17,7.69468277488716D-17,          145P    209
7.69468277488716D-17,1.,0.707106781186547,1.,                        145P    210
-1.37772764904077D-17,0.,3.125,-0.225,0.,3.125,-0.225,0.,2.9,        145P    211
-1.5707963267949,7.69468277488716D-17,0.,0.,0.;                      145P    212
126,1,1,0,0,1,0,-7.6,-7.6,0.,0.,1.,1.,-0.125,0.,0.95,-0.125,0.,      147P    213
0.,-7.6,0.,0.,0.,0.;                                                 147P    214
128,1,8,1,2,0,1,0,0,1,-0.166378066161541,-0.166378066161541,         149P    215
0.16637806616154,0.16637806616154,-3.14159265358979,                 149P    216
-3.14159265358979,-3.14159265358979,-1.5707963267949,                149P    217
-1.5707963267949,0.,0.,1.5707963267949,1.5707963267949,              149P    218
3.14159265358979,3.14159265358979,3.14159265358979,1.,1.,            149P    219
0.707106781186548,0.707106781186548,1.,1.,0.707106781186548,         149P    220
0.707106781186548,1.,1.,0.707106781186548,0.707106781186548,1.,      149P    221
1.,0.707106781186548,0.707106781186548,1.,1.,-0.45,-0.1875,1.45,     149P    222
-0.5,-0.2375,1.45,-0.45,-0.1875,1.6375,-0.5,-0.2375,1.6875,          149P    223
-0.45,8.74191357972564D-17,1.6375,-0.5,8.74191357972564D-17,         149P    224
1.6875,-0.45,0.1875,1.6375,-0.5,0.2375,1.6875,-0.45,0.1875,1.45,     149P    225
-0.5,0.2375,1.45,-0.45,0.1875,1.2625,-0.5,0.2375,1.2125,-0.45,       149P    226
8.74191357972564D-17,1.2625,-0.5,8.74191357972564D-17,1.2125,        149P    227
-0.45,-0.1875,1.2625,-0.5,-0.2375,1.2125,-0.45,-0.1875,1.45,         149P    228
-0.5,-0.2375,1.45,-0.166378066161541,0.16637806616154,               149P    229
-3.14159265358979,3.14159265358979;                                  149P    230
128,1,8,1,2,0,1,0,0,1,0.266666666666667,0.266666666666667,           151P    231
5.06666666666667,5.06666666666667,-3.14159265358979,                 151P    232
-3.14159265358979,-3.14159265358979,-1.5707963267949,                151P    233
-1.5707963267949,0.,0.,1.5707963267949,1.5707963267949,              151P    234
3.14159265358979,3.14159265358979,3.14159265358979,1.,1.,            151P    235
0.707106781186548,0.707106781186548,1.,1.,0.707106781186548,         151P    236
0.707106781186548,1.,1.,0.707106781186548,0.707106781186548,1.,      151P    237
1.,0.707106781186548,0.707106781186548,1.,1.,0.45,-0.1875,1.45,      151P    238
-0.45,-0.1875,1.45,0.45,-0.1875,1.6375,-0.45,-0.1875,1.6375,         151P    239
0.45,8.74191357972564D-17,1.6375,-0.45,8.74191357972564D-17,         151P    240
1.6375,0.45,0.1875,1.6375,-0.45,0.1875,1.6375,0.45,0.1875,1.45,      151P    241
-0.45,0.1875,1.45,0.45,0.1875,1.2625,-0.45,0.1875,1.2625,0.45,       151P    242
8.74191357972564D-17,1.2625,-0.45,8.74191357972564D-17,1.2625,       151P    243
0.45,-0.1875,1.2625,-0.45,-0.1875,1.2625,0.45,-0.1875,1.45,          151P    244
-0.45,-0.1875,1.45,0.266666666666667,5.06666666666667,               151P    245
-3.14159265358979,3.14159265358979;                                  151P    246
128,1,1,1,1,0,0,1,0,0,-0.001,-0.001,2.541,2.541,-1.271,-1.271,       153P    247
1.271,1.271,1.,1.,1.,1.,-0.5,0.500393700787402,                      153P    248
0.949606299212598,-0.5,-0.500393700787401,0.949606299212598,         153P    249
-0.5,0.500393700787402,1.9503937007874,-0.5,-0.500393700787401,      153P    250
1.9503937007874,-0.001,2.541,-1.271,1.271;                           153P    251
128,1,8,1,2,0,1,0,0,1,-0.166378066161541,-0.166378066161541,         155P    252
0.166378066161541,0.166378066161541,-3.14159265358979,               155P    253
-3.14159265358979,-3.14159265358979,-1.5707963267949,                155P    254
-1.5707963267949,0.,0.,1.5707963267949,1.5707963267949,              155P    255
3.14159265358979,3.14159265358979,3.14159265358979,1.,1.,            155P    256
0.707106781186548,0.707106781186548,1.,1.,0.707106781186548,         155P    257
0.707106781186548,1.,1.,0.707106781186548,0.707106781186548,1.,      155P    258
1.,0.707106781186548,0.707106781186548,1.,1.,0.45,-0.1875,1.45,      155P    259
0.5,-0.2375,1.45,0.45,-0.1875,1.2625,0.5,-0.2375,1.2125,0.45,        155P    260
8.74191357972564D-17,1.2625,0.5,8.74191357972564D-17,1.2125,         155P    261
0.45,0.1875,1.2625,0.5,0.2375,1.2125,0.45,0.1875,1.45,0.5,           155P    262
0.2375,1.45,0.45,0.1875,1.6375,0.5,0.2375,1.6875,0.45,               155P    263
8.74191357972564D-17,1.6375,0.5,8.74191357972564D-17,1.6875,         155P    264
0.45,-0.1875,1.6375,0.5,-0.2375,1.6875,0.45,-0.1875,1.45,0.5,        155P    265
-0.2375,1.45,-0.166378066161541,0.166378066161541,                   155P    266
-3.14159265358979,3.14159265358979;                                  155P    267
128,1,1,1,1,0,0,1,0,0,-0.001,-0.001,2.541,2.541,-1.271,-1.271,       157P    268
1.271,1.271,1.,1.,1.,1.,0.5,-0.500393700787401,                      157P    269
0.949606299212598,0.5,0.500393700787402,0.949606299212598,0.5,       157P    270
-0.500393700787401,1.9503937007874,0.5,0.500393700787402,            157P    271
1.9503937007874,-0.001,2.541,-1.271,1.271;                           157P    272
128,1,1,1,1,0,0,1,0,0,-1.271,-1.271,1.271,1.271,-1.271,-1.271,       159P    273
1.271,1.271,1.,1.,1.,1.,0.500393700787402,-0.500393700787401,        159P    274
0.95,-0.500393700787401,-0.500393700787401,0.95,                     159P    275
0.500393700787402,0.500393700787402,0.95,-0.500393700787401,         159P    276
0.500393700787402,0.95,-1.271,1.271,-1.271,1.271;                    159P    277
128,1,1,1,1,0,0,1,0,0,-1.271,-1.271,1.271,1.271,-1.271,-1.271,       161P    278
1.271,1.271,1.,1.,1.,1.,-0.500393700787401,-0.500393700787401,       161P    279
1.95,0.500393700787402,-0.500393700787401,1.95,                      161P    280
-0.500393700787401,0.500393700787402,1.95,0.500393700787402,         161P    281
0.500393700787402,1.95,-1.271,1.271,-1.271,1.271;                    161P    282
128,1,1,1,1,0,0,1,0,0,-0.001,-0.001,2.541,2.541,-1.271,-1.271,       163P    283
1.271,1.271,1.,1.,1.,1.,0.500393700787402,0.5,0.949606299212598,     163P    284
-0.500393700787401,0.5,0.949606299212598,0.500393700787402,0.5,      163P    285
1.9503937007874,-0.500393700787401,0.5,1.9503937007874,-0.001,       163P    286
2.541,-1.271,1.271;                                                  163P    287
128,1,1,1,1,0,0,1,0,0,-0.001,-0.001,2.541,2.541,-1.271,-1.271,       165P    288
1.271,1.271,1.,1.,1.,1.,-0.500393700787401,-0.5,                     165P    289
0.949606299212598,0.500393700787402,-0.5,0.949606299212598,          165P    290
-0.500393700787401,-0.5,1.9503937007874,0.500393700787402,-0.5,      165P    291
1.9503937007874,-0.001,2.541,-1.271,1.271;                           165P    292
128,1,8,1,2,0,1,0,0,1,15.6,15.6,23.2,23.2,-3.14159265358979,         167P    293
-3.14159265358979,-3.14159265358979,-1.5707963267949,                167P    294
-1.5707963267949,0.,0.,1.5707963267949,1.5707963267949,              167P    295
3.14159265358979,3.14159265358979,3.14159265358979,1.,1.,            167P    296
0.707106781186548,0.707106781186548,1.,1.,0.707106781186548,         167P    297
0.707106781186548,1.,1.,0.707106781186548,0.707106781186548,1.,      167P    298
1.,0.707106781186548,0.707106781186548,1.,1.,-0.125,0.,2.9,          167P    299
-0.125,0.,1.95,-0.125,-0.125,2.9,-0.125,-0.125,1.95,0.,-0.125,       167P    300
2.9,0.,-0.125,1.95,0.125,-0.125,2.9,0.125,-0.125,1.95,0.125,0.,      167P    301
2.9,0.125,0.,1.95,0.125,0.125,2.9,0.125,0.125,1.95,0.,0.125,2.9,     167P    302
0.,0.125,1.95,-0.125,0.125,2.9,-0.125,0.125,1.95,-0.125,0.,2.9,      167P    303
-0.125,0.,1.95,15.6,23.2,-3.14159265358979,3.14159265358979;         167P    304
128,1,1,1,1,0,0,1,0,0,-0.587698673335464,-0.587698673335464,         169P    305
0.587730456146608,0.587730456146608,-0.39431569680001,               169P    306
-0.39431569680001,0.991567417310305,0.991567417310305,1.,1.,1.,      169P    307
1.,0.231389943364806,0.262536308579088,0.,-0.231377430447033,        169P    308
0.262536308579088,0.,0.231389943364806,-0.283086964692689,0.,        169P    309
-0.231377430447033,-0.283086964692689,0.,-0.587698673335464,         169P    310
0.587730456146608,-0.39431569680001,0.991567417310305;               169P    311
128,6,4,2,2,0,0,0,0,0,-1.6164803489523,-1.6164803489523,             171P    312
-1.6164803489523,-0.5388267829841,-0.5388267829841,                  171P    313
0.5388267829841,0.5388267829841,1.6164803489523,1.6164803489523,     171P    314
1.6164803489523,1.5707963267949,1.5707963267949,1.5707963267949,     171P    315
3.14159265358979,3.14159265358979,4.71238898038469,                  171P    316
4.71238898038469,4.71238898038469,1.,0.858311284027929,1.,           171P    317
0.858311284027928,1.,0.858311284027929,1.,0.707106781186548,         171P    318
0.606917729305081,0.707106781186548,0.606917729305081,               171P    319
0.707106781186548,0.606917729305081,0.707106781186548,1.,            171P    320
0.858311284027929,1.,0.858311284027928,1.,0.858311284027929,1.,      171P    321
0.707106781186548,0.606917729305081,0.707106781186548,               171P    322
0.606917729305081,0.707106781186548,0.606917729305081,               171P    323
0.707106781186548,1.,0.858311284027929,1.,0.858311284027928,1.,      171P    324
0.858311284027929,1.,-0.224758951846974,-0.0104121834717519,         171P    325
-2.6613949678252D-20,-0.230983729659631,0.123956802673055,0.,        171P    326
-0.115571671743965,0.193049705232371,0.,-0.000159613828297825,       171P    327
0.262142607791687,0.,0.115336497284714,0.193190300983494,0.,         171P    328
0.230832608397726,0.124237994175302,0.,0.224771464764748,            171P    329
-0.0101384726418485,2.6613949678252D-20,-0.224758951846974,          171P    330
-0.0104121834717519,-2.32473218958245D-17,-0.230983729659631,        171P    331
0.123956802673055,-0.134372751389439,-0.115571671743965,             171P    332
0.193049705232371,-0.203395368867805,-0.000159613828297825,          171P    333
0.262142607791687,-0.272417986346171,0.115336497284714,              171P    334
0.193190300983494,-0.203395368867805,0.230832608397726,              171P    335
0.124237994175302,-0.13437275138944,0.224771464764748,               171P    336
-0.0101384726418485,-2.3194093996468D-17,-0.224758951846974,         171P    337
-0.010412183471752,-2.32207079461462D-17,-0.230901912569792,         171P    338
-0.0104159238079236,-0.13437275138944,-0.115447828055452,            171P    339
-0.0103456259323619,-0.203395368867805,6.25645888694614D-6,          171P    340
-0.0102753280568002,-0.272417986346171,0.115460340973226,            171P    341
-0.0102050301812386,-0.203395368867805,0.230914425487566,            171P    342
-0.0101347323056769,-0.13437275138944,0.224771464764748,             171P    343
-0.0101384726418485,-2.32207079461462D-17,-0.224758951846974,        171P    344
-0.010412183471752,-2.3194093996468D-17,-0.230820095479952,          171P    345
-0.144788650288902,-0.134372751389439,-0.11532398436694,             171P    346
-0.213740957097095,-0.203395368867805,0.000172126746071718,          171P    347
-0.282693263905287,-0.272417986346171,0.115584184661738,             171P    348
-0.213600361345971,-0.203395368867805,0.230996242577405,             171P    349
-0.144507458786656,-0.13437275138944,0.224771464764748,              171P    350
-0.0101384726418485,-2.32473218958245D-17,-0.224758951846974,        171P    351
-0.010412183471752,2.6613949678252D-20,-0.230820095479952,           171P    352
-0.144788650288902,0.,-0.11532398436694,-0.213740957097095,0.,       171P    353
0.000172126746071718,-0.282693263905287,0.,0.115584184661738,        171P    354
-0.213600361345971,0.,0.230996242577405,-0.144507458786656,0.,       171P    355
0.224771464764748,-0.0101384726418485,-2.6613949678252D-20,          171P    356
-1.6164803489523,1.6164803489523,1.5707963267949,                    171P    357
4.71238898038469;                                                    171P    358
128,2,8,2,2,0,1,0,0,1,0.,0.,0.,1.5707963267949,1.5707963267949,      173P    359
1.5707963267949,-3.14159265358979,-3.14159265358979,                 173P    360
-3.14159265358979,-1.5707963267949,-1.5707963267949,0.,0.,           173P    361
1.5707963267949,1.5707963267949,3.14159265358979,                    173P    362
3.14159265358979,3.14159265358979,1.,0.707106781186552,1.,           173P    363
0.707106781186548,0.500000000000003,0.707106781186548,1.,            173P    364
0.707106781186552,1.,0.707106781186548,0.500000000000003,            173P    365
0.707106781186548,1.,0.707106781186552,1.,0.707106781186548,         173P    366
0.500000000000003,0.707106781186548,1.,0.707106781186552,1.,         173P    367
0.707106781186548,0.500000000000003,0.707106781186548,1.,            173P    368
0.707106781186552,1.,-0.125,0.,2.9,-0.125,0.,3.025,                  173P    369
-7.65404249467096D-18,0.,3.025,-0.125,-0.125,2.9,-0.125,-0.125,      173P    370
3.025,-7.65404249467096D-18,-7.65404249467096D-18,3.025,0.,          173P    371
-0.125,2.9,0.,-0.125,3.025,0.,-7.65404249467096D-18,3.025,0.125,     173P    372
-0.125,2.9,0.125,-0.125,3.025,7.65404249467096D-18,                  173P    373
-7.65404249467096D-18,3.025,0.125,0.,2.9,0.125,0.,3.025,             173P    374
7.65404249467096D-18,0.,3.025,0.125,0.125,2.9,0.125,0.125,3.025,     173P    375
7.65404249467096D-18,7.65404249467096D-18,3.025,0.,0.125,2.9,0.,     173P    376
0.125,3.025,0.,7.65404249467096D-18,3.025,-0.125,0.125,2.9,          173P    377
-0.125,0.125,3.025,-7.65404249467096D-18,7.65404249467096D-18,       173P    378
3.025,-0.125,0.,2.9,-0.125,0.,3.025,-7.65404249467096D-18,0.,        173P    379
3.025,0.,1.5707963267949,-3.14159265358979,3.14159265358979;         173P    380
128,2,8,2,2,0,1,0,0,1,-7.69468277488716D-17,                         175P    381
-7.69468277488716D-17,-7.69468277488716D-17,1.5707963267949,         175P    382
1.5707963267949,1.5707963267949,-3.14159265358979,                   175P    383
-3.14159265358979,-3.14159265358979,-1.5707963267949,                175P    384
-1.5707963267949,0.,0.,1.5707963267949,1.5707963267949,              175P    385
3.14159265358979,3.14159265358979,3.14159265358979,1.,               175P    386
0.707106781186547,1.,0.707106781186548,0.5,0.707106781186548,1.,     175P    387
0.707106781186547,1.,0.707106781186548,0.5,0.707106781186548,1.,     175P    388
0.707106781186547,1.,0.707106781186548,0.5,0.707106781186548,1.,     175P    389
0.707106781186547,1.,0.707106781186548,0.5,0.707106781186548,1.,     175P    390
0.707106781186547,1.,-1.37772764904077D-17,0.,3.125,-0.225,0.,       175P    391
3.125,-0.225,0.,2.9,-1.37772764904077D-17,-1.37772764904077D-17,     175P    392
3.125,-0.225,-0.225,3.125,-0.225,-0.225,2.9,0.,                      175P    393
-1.37772764904077D-17,3.125,0.,-0.225,3.125,0.,-0.225,2.9,           175P    394
1.37772764904077D-17,-1.37772764904077D-17,3.125,0.225,-0.225,       175P    395
3.125,0.225,-0.225,2.9,1.37772764904077D-17,0.,3.125,0.225,0.,       175P    396
3.125,0.225,0.,2.9,1.37772764904077D-17,1.37772764904077D-17,        175P    397
3.125,0.225,0.225,3.125,0.225,0.225,2.9,0.,1.37772764904077D-17,     175P    398
3.125,0.,0.225,3.125,0.,0.225,2.9,-1.37772764904077D-17,             175P    399
1.37772764904077D-17,3.125,-0.225,0.225,3.125,-0.225,0.225,2.9,      175P    400
-1.37772764904077D-17,0.,3.125,-0.225,0.,3.125,-0.225,0.,2.9,        175P    401
-7.69468277488716D-17,1.5707963267949,-3.14159265358979,             175P    402
3.14159265358979;                                                    175P    403
128,1,1,1,1,0,0,1,0,0,-0.801486003056567,-0.801486003056567,         177P    404
0.486334065450914,0.486334065450914,-0.747125261849905,              177P    405
-0.747125261849905,0.593706818298053,0.593706818298053,1.,1.,1.,     177P    406
1.,-0.225393700787402,0.262154665122227,2.9,0.281622074215543,       177P    407
0.262154665122227,2.9,-0.225393700787402,-0.265731980605315,2.9,     177P    408
0.281622074215543,-0.265731980605315,2.9,-0.801486003056567,         177P    409
0.486334065450914,-0.747125261849905,0.593706818298053;              177P    410
128,1,8,1,2,0,1,0,0,1,0.,0.,7.6,7.6,-3.14159265358979,               179P    411
-3.14159265358979,-3.14159265358979,-1.5707963267949,                179P    412
-1.5707963267949,0.,0.,1.5707963267949,1.5707963267949,              179P    413
3.14159265358979,3.14159265358979,3.14159265358979,1.,1.,            179P    414
0.707106781186548,0.707106781186548,1.,1.,0.707106781186548,         179P    415
0.707106781186548,1.,1.,0.707106781186548,0.707106781186548,1.,      179P    416
1.,0.707106781186548,0.707106781186548,1.,1.,-0.125,0.,0.95,         179P    417
-0.125,0.,0.,-0.125,-0.125,0.95,-0.125,-0.125,0.,0.,-0.125,0.95,     179P    418
0.,-0.125,0.,0.125,-0.125,0.95,0.125,-0.125,0.,0.125,0.,0.95,        179P    419
0.125,0.,0.,0.125,0.125,0.95,0.125,0.125,0.,0.,0.125,0.95,0.,        179P    420
0.125,0.,-0.125,0.125,0.95,-0.125,0.125,0.,-0.125,0.,0.95,           179P    421
-0.125,0.,0.,0.,7.6,-3.14159265358979,3.14159265358979;              179P    422
128,1,1,1,1,0,0,1,0,0,-0.3185,-0.3185,0.397844482504156,             181P    423
0.397844482504156,-0.375421794854167,-0.375421794854167,             181P    424
0.370373805228032,0.370373805228032,1.,1.,1.,1.,                     181P    425
-0.125393700787402,-0.147803856241798,2.9,0.156631686025258,         181P    426
-0.147803856241798,2.9,-0.125393700787402,0.145816458751194,2.9,     181P    427
0.156631686025258,0.145816458751194,2.9,-0.3185,                     181P    428
0.397844482504156,-0.375421794854167,0.370373805228032;              181P    429
502,23,-0.5,-0.2375,1.45,-0.45,-0.1875,1.45,0.45,-0.1875,1.45,       183P    430
-0.5,-0.5,1.95,-0.5,-0.5,0.95,-0.5,0.5,1.95,-0.5,0.5,0.95,0.5,       183P    431
-0.2375,1.45,0.5,0.5,0.95,0.5,0.5,1.95,0.5,-0.5,1.95,0.5,-0.5,       183P    432
0.95,-0.125,1.53080849893419D-17,0.95,-0.125,                        183P    433
-1.53080849893419D-17,1.95,0.0873071152453689,                       183P    434
-0.0894565124936797,2.9,-0.125,0.,2.9,-0.224758951846975,            183P    435
-0.010412183471752,0.,0.224771464764748,-0.010138472641848,0.,       183P    436
-0.125,-1.53080849893419D-17,0.,-7.65404249467096D-18,0.,3.025,      183P    437
0.157152807441664,-0.161021722488623,2.9,-0.225,0.,2.9,              183P    438
-1.37772764904077D-17,0.,3.125;                                      183P    439
504,32,85,183,1,183,1,87,183,1,183,2,89,183,2,183,2,91,183,3,        185P    440
183,3,93,183,3,183,2,95,183,4,183,5,97,183,6,183,4,99,183,7,183,     185P    441
6,101,183,5,183,7,103,183,8,183,8,105,183,8,183,3,107,183,9,183,     185P    442
10,109,183,11,183,10,111,183,12,183,11,113,183,9,183,12,115,183,     185P    443
12,183,5,117,183,7,183,9,119,183,13,183,13,121,183,4,183,11,123,     185P    444
183,10,183,6,125,183,14,183,14,127,183,15,183,16,129,183,16,183,     185P    445
15,131,183,16,183,14,133,183,17,183,18,135,183,17,183,18,137,        185P    446
183,19,183,19,139,183,20,183,16,141,183,21,183,22,143,183,22,        185P    447
183,21,145,183,23,183,22,147,183,13,183,19;                          185P    448
406,1,5HBody1;                                                       187P    449
314,62.7450980392157,62.7450980392157,62.7450980392157,13HSteel      189P    450
- Satin;                                                             189P    451
S      1G      3D    190P    451                                        T      1
