                                                                        S      1
,,6HShaft ,6HShaft ,7Hunknown,7Hunknown,32,38,7,99,15,,1.,1,4HINCH,1,   G      1
0.08,15H20211218.204418,0.000393700787401575,10000.,7Hunknown,7Hunknown,G      2
11,0,15H20211216.144311;                                                G      3
     186       1                                                00000000D      1
     186             -75       1       0                               0D      2
     514       2                                                00010000D      3
     514                       1       1                               0D      4
     510       3                                                00010000D      5
     510             -75       1       1                               0D      6
     510       4                                                00010000D      7
     510             -75       1       1                               0D      8
     510       5                                                00010000D      9
     510             -75       1       1                               0D     10
     510       6                                                00010000D     11
     510             -75       1       1                               0D     12
     510       7                                                00010000D     13
     510             -75       1       1                               0D     14
     510       8                                                00010000D     15
     510             -75       1       1                               0D     16
     510       9                                                00010000D     17
     510             -75       1       1                               0D     18
     508      10                                                00010000D     19
     508                       1       1                               0D     20
     508      11                                                00010000D     21
     508                       1       1                               0D     22
     508      12                                                00010000D     23
     508                       1       1                               0D     24
     508      13                                                00010000D     25
     508                       1       1                               0D     26
     508      14                                                00010000D     27
     508                       1       1                               0D     28
     508      15                                                00010000D     29
     508                       1       1                               0D     30
     508      16                                                00010000D     31
     508                       1       1                               0D     32
     508      17                                                00010000D     33
     508                       1       1                               0D     34
     508      18                                                00010000D     35
     508                       1       1                               0D     36
     126      19                                                00010000D     37
     126       0              10       0                               0D     38
     126      29                                                00010000D     39
     126       0               3       0                               0D     40
     126      32                                                00010000D     41
     126       0              10       0                               0D     42
     126      42                                                00010000D     43
     126       0              10       0                               0D     44
     126      52                                                00010000D     45
     126       0               2       0                               0D     46
     126      54                                                00010000D     47
     126       0              10       0                               0D     48
     126      64                                                00010000D     49
     126       0              10       0                               0D     50
     126      74                                                00010000D     51
     126       0              10       0                               0D     52
     126      84                                                00010000D     53
     126       0               3       0                               0D     54
     128      87                                                00010000D     55
     128       0     -75      14       0                               0D     56
     128     101                                                00010000D     57
     128       0     -75       6       0                               0D     58
     128     107                                                00010000D     59
     128       0     -75      14       0                               0D     60
     128     121                                                00010000D     61
     128       0     -75       6       0                               0D     62
     128     127                                                00010000D     63
     128       0     -75       6       0                               0D     64
     128     133                                                00010000D     65
     128       0     -75      14       0                               0D     66
     128     147                                                00010000D     67
     128       0     -75       6       0                               0D     68
     502     153                                                00010000D     69
     502                       4       1                               0D     70
     504     157                                                00010001D     71
     504                       2       1                               0D     72
     406     159                                                00000000D     73
     406                       1      15                               0D     74
     314     160                                                00000200D     75
     314                       2       0                               0D     76
186,3,1,0,0,1,73;                                                      1P      1
514,7,5,1,7,1,9,1,11,1,13,1,15,1,17,1;                                 3P      2
510,55,1,1,19;                                                         5P      3
510,57,1,1,21;                                                         7P      4
510,59,1,1,23;                                                         9P      5
510,61,1,1,25;                                                        11P      6
510,63,2,1,27,29;                                                     13P      7
510,65,1,1,31;                                                        15P      8
510,67,2,1,33,35;                                                     17P      9
508,4,0,71,1,0,0,0,71,2,1,0,0,71,3,0,0,0,71,2,0,0;                    19P     10
508,1,0,71,1,1,0;                                                     21P     11
508,4,0,71,4,0,0,0,71,5,1,0,0,71,6,0,0,0,71,5,0,0;                    23P     12
508,1,0,71,4,1,0;                                                     25P     13
508,1,0,71,7,1,0;                                                     27P     14
508,1,0,71,3,1,0;                                                     29P     15
508,4,0,71,8,0,0,0,71,9,1,0,0,71,7,0,0,0,71,9,0,0;                    31P     16
508,1,0,71,8,1,0;                                                     33P     17
508,1,0,71,6,1,0;                                                     35P     18
126,8,2,0,1,0,0,-3.14159265358979,-3.14159265358979,                  37P     19
-3.14159265358979,-1.5707963267949,-1.5707963267949,0.,0.,            37P     20
1.5707963267949,1.5707963267949,3.14159265358979,                     37P     21
3.14159265358979,3.14159265358979,1.,0.707106781186547,1.,            37P     22
0.707106781186548,1.,0.707106781186548,1.,0.707106781186547,1.,       37P     23
-0.1875,2.29621274840129D-17,-10.25,-0.1875,0.1875,-10.25,            37P     24
1.14810637420064D-17,0.1875,-10.25,0.1875,0.1875,-10.25,0.1875,       37P     25
0.,-10.25,0.1875,-0.1875,-10.25,1.14810637420064D-17,-0.1875,         37P     26
-10.25,-0.1875,-0.1875,-10.25,-0.1875,-2.29621274840129D-17,          37P     27
-10.25,-3.14159265358979,3.14159265358979,0.,0.,0.;                   37P     28
126,1,1,0,0,1,0,-37.3333333333333,-37.3333333333333,0.,0.,1.,1.,      39P     29
-0.1875,0.,-10.25,-0.1875,0.,-3.25,-37.3333333333333,0.,0.,0.,        39P     30
0.;                                                                   39P     31
126,8,2,0,1,0,0,-3.14159265358979,-3.14159265358979,                  41P     32
-3.14159265358979,-1.5707963267949,-1.5707963267949,0.,0.,            41P     33
1.5707963267949,1.5707963267949,3.14159265358979,                     41P     34
3.14159265358979,3.14159265358979,1.,0.707106781186547,1.,            41P     35
0.707106781186548,1.,0.707106781186548,1.,0.707106781186547,1.,       41P     36
-0.1875,-2.29621274840129D-17,-3.25,-0.1875,-0.1875,-3.25,            41P     37
1.14810637420064D-17,-0.1875,-3.25,0.1875,-0.1875,-3.25,0.1875,       41P     38
0.,-3.25,0.1875,0.1875,-3.25,1.14810637420064D-17,0.1875,-3.25,       41P     39
-0.1875,0.1875,-3.25,-0.1875,2.29621274840129D-17,-3.25,              41P     40
-3.14159265358979,3.14159265358979,0.,0.,0.;                          41P     41
126,8,2,0,1,0,0,-3.14159265358979,-3.14159265358979,                  43P     42
-3.14159265358979,-1.5707963267949,-1.5707963267949,0.,0.,            43P     43
1.5707963267949,1.5707963267949,3.14159265358979,                     43P     44
3.14159265358979,3.14159265358979,1.,0.707106781186547,1.,            43P     45
0.707106781186548,1.,0.707106781186548,1.,0.707106781186547,1.,       43P     46
0.1875,2.29621274840129D-17,10.25,0.1875,0.1875,10.25,                43P     47
-1.14810637420064D-17,0.1875,10.25,-0.1875,0.1875,10.25,-0.1875,      43P     48
0.,10.25,-0.1875,-0.1875,10.25,-1.14810637420064D-17,-0.1875,         43P     49
10.25,0.1875,-0.1875,10.25,0.1875,-2.29621274840129D-17,10.25,        43P     50
-3.14159265358979,3.14159265358979,0.,0.,0.;                          43P     51
126,1,1,0,0,1,0,-37.3333333333333,-37.3333333333333,0.,0.,1.,1.,      45P     52
0.1875,0.,10.25,0.1875,0.,3.25,-37.3333333333333,0.,0.,0.,0.;         45P     53
126,8,2,0,1,0,0,-3.14159265358979,-3.14159265358979,                  47P     54
-3.14159265358979,-1.5707963267949,-1.5707963267949,0.,0.,            47P     55
1.5707963267949,1.5707963267949,3.14159265358979,                     47P     56
3.14159265358979,3.14159265358979,1.,0.707106781186547,1.,            47P     57
0.707106781186548,1.,0.707106781186548,1.,0.707106781186547,1.,       47P     58
0.1875,-2.29621274840129D-17,3.25,0.1875,-0.1875,3.25,                47P     59
-1.14810637420064D-17,-0.1875,3.25,-0.1875,-0.1875,3.25,-0.1875,      47P     60
0.,3.25,-0.1875,0.1875,3.25,-1.14810637420064D-17,0.1875,3.25,        47P     61
0.1875,0.1875,3.25,0.1875,2.29621274840129D-17,3.25,                  47P     62
-3.14159265358979,3.14159265358979,0.,0.,0.;                          47P     63
126,8,2,0,1,0,0,-3.14159265358979,-3.14159265358979,                  49P     64
-3.14159265358979,-1.5707963267949,-1.5707963267949,0.,0.,            49P     65
1.5707963267949,1.5707963267949,3.14159265358979,                     49P     66
3.14159265358979,3.14159265358979,1.,0.707106781186547,1.,            49P     67
0.707106781186547,1.,0.707106781186547,1.,0.707106781186547,1.,       49P     68
-0.275,3.36777869765522D-17,-3.25,-0.275,0.275,-3.25,                 49P     69
1.68388934882761D-17,0.275,-3.25,0.275,0.275,-3.25,0.275,0.,          49P     70
-3.25,0.275,-0.275,-3.25,1.68388934882761D-17,-0.275,-3.25,           49P     71
-0.275,-0.275,-3.25,-0.275,-3.36777869765522D-17,-3.25,               49P     72
-3.14159265358979,3.14159265358979,0.,0.,0.;                          49P     73
126,8,2,0,1,0,0,-3.14159265358979,-3.14159265358979,                  51P     74
-3.14159265358979,-1.5707963267949,-1.5707963267949,0.,0.,            51P     75
1.5707963267949,1.5707963267949,3.14159265358979,                     51P     76
3.14159265358979,3.14159265358979,1.,0.707106781186547,1.,            51P     77
0.707106781186547,1.,0.707106781186547,1.,0.707106781186547,1.,       51P     78
-0.275,-3.36777869765522D-17,3.25,-0.275,-0.275,3.25,                 51P     79
1.68388934882761D-17,-0.275,3.25,0.275,-0.275,3.25,0.275,0.,          51P     80
3.25,0.275,0.275,3.25,1.68388934882761D-17,0.275,3.25,-0.275,         51P     81
0.275,3.25,-0.275,3.36777869765522D-17,3.25,-3.14159265358979,        51P     82
3.14159265358979,0.,0.,0.;                                            51P     83
126,1,1,0,0,1,0,-11.8181818181818,-11.8181818181818,                  53P     84
11.8181818181818,11.8181818181818,1.,1.,-0.275,0.,3.25,-0.275,        53P     85
0.,-3.25,-11.8181818181818,11.8181818181818,0.,0.,0.;                 53P     86
128,1,8,1,2,0,1,0,0,1,0.,0.,37.3333333333333,37.3333333333333,        55P     87
-3.14159265358979,-3.14159265358979,-3.14159265358979,                55P     88
-1.5707963267949,-1.5707963267949,0.,0.,1.5707963267949,              55P     89
1.5707963267949,3.14159265358979,3.14159265358979,                    55P     90
3.14159265358979,1.,1.,0.707106781186548,0.707106781186548,1.,        55P     91
1.,0.707106781186548,0.707106781186548,1.,1.,0.707106781186548,       55P     92
0.707106781186548,1.,1.,0.707106781186548,0.707106781186548,1.,       55P     93
1.,-0.1875,0.,-10.25,-0.1875,0.,-3.25,-0.1875,0.1875,-10.25,          55P     94
-0.1875,0.1875,-3.25,0.,0.1875,-10.25,0.,0.1875,-3.25,0.1875,         55P     95
0.1875,-10.25,0.1875,0.1875,-3.25,0.1875,0.,-10.25,0.1875,0.,         55P     96
-3.25,0.1875,-0.1875,-10.25,0.1875,-0.1875,-3.25,0.,-0.1875,          55P     97
-10.25,0.,-0.1875,-3.25,-0.1875,-0.1875,-10.25,-0.1875,-0.1875,       55P     98
-3.25,-0.1875,0.,-10.25,-0.1875,0.,-3.25,0.,37.3333333333333,         55P     99
-3.14159265358979,3.14159265358979;                                   55P    100
128,1,1,1,1,0,0,1,0,0,-0.47725,-0.47725,0.47725,0.47725,              57P    101
-0.47725,-0.47725,0.47725,0.47725,1.,1.,1.,1.,                        57P    102
-0.187893700787402,0.187893700787402,-10.25,0.187893700787402,        57P    103
0.187893700787402,-10.25,-0.187893700787402,-0.187893700787402,       57P    104
-10.25,0.187893700787402,-0.187893700787402,-10.25,-0.47725,          57P    105
0.47725,-0.47725,0.47725;                                             57P    106
128,1,8,1,2,0,1,0,0,1,0.,0.,37.3333333333333,37.3333333333333,        59P    107
-3.14159265358979,-3.14159265358979,-3.14159265358979,                59P    108
-1.5707963267949,-1.5707963267949,0.,0.,1.5707963267949,              59P    109
1.5707963267949,3.14159265358979,3.14159265358979,                    59P    110
3.14159265358979,1.,1.,0.707106781186548,0.707106781186548,1.,        59P    111
1.,0.707106781186548,0.707106781186548,1.,1.,0.707106781186548,       59P    112
0.707106781186548,1.,1.,0.707106781186548,0.707106781186548,1.,       59P    113
1.,0.1875,0.,10.25,0.1875,0.,3.25,0.1875,0.1875,10.25,0.1875,         59P    114
0.1875,3.25,0.,0.1875,10.25,0.,0.1875,3.25,-0.1875,0.1875,10.25,      59P    115
-0.1875,0.1875,3.25,-0.1875,0.,10.25,-0.1875,0.,3.25,-0.1875,         59P    116
-0.1875,10.25,-0.1875,-0.1875,3.25,0.,-0.1875,10.25,0.,-0.1875,       59P    117
3.25,0.1875,-0.1875,10.25,0.1875,-0.1875,3.25,0.1875,0.,10.25,        59P    118
0.1875,0.,3.25,0.,37.3333333333333,-3.14159265358979,                 59P    119
3.14159265358979;                                                     59P    120
128,1,1,1,1,0,0,1,0,0,-0.47725,-0.47725,0.47725,0.47725,              61P    121
-0.47725,-0.47725,0.47725,0.47725,1.,1.,1.,1.,0.187893700787402,      61P    122
0.187893700787402,10.25,-0.187893700787402,0.187893700787402,         61P    123
10.25,0.187893700787402,-0.187893700787402,10.25,                     61P    124
-0.187893700787402,-0.187893700787402,10.25,-0.47725,0.47725,         61P    125
-0.47725,0.47725;                                                     61P    126
128,1,1,1,1,0,0,1,0,0,-0.6995,-0.6995,0.6995,0.6995,-0.6995,          63P    127
-0.6995,0.6995,0.6995,1.,1.,1.,1.,0.275393700787402,                  63P    128
-0.275393700787402,-3.25,-0.275393700787402,-0.275393700787402,       63P    129
-3.25,0.275393700787402,0.275393700787402,-3.25,                      63P    130
-0.275393700787402,0.275393700787402,-3.25,-0.6995,0.6995,            63P    131
-0.6995,0.6995;                                                       63P    132
128,1,8,1,2,0,1,0,0,1,-11.8181818181818,-11.8181818181818,            65P    133
11.8181818181818,11.8181818181818,-3.14159265358979,                  65P    134
-3.14159265358979,-3.14159265358979,-1.5707963267949,                 65P    135
-1.5707963267949,0.,0.,1.5707963267949,1.5707963267949,               65P    136
3.14159265358979,3.14159265358979,3.14159265358979,1.,1.,             65P    137
0.707106781186548,0.707106781186548,1.,1.,0.707106781186548,          65P    138
0.707106781186548,1.,1.,0.707106781186548,0.707106781186548,1.,       65P    139
1.,0.707106781186548,0.707106781186548,1.,1.,-0.275,0.,3.25,          65P    140
-0.275,0.,-3.25,-0.275,-0.275,3.25,-0.275,-0.275,-3.25,0.,            65P    141
-0.275,3.25,0.,-0.275,-3.25,0.275,-0.275,3.25,0.275,-0.275,           65P    142
-3.25,0.275,0.,3.25,0.275,0.,-3.25,0.275,0.275,3.25,0.275,0.275,      65P    143
-3.25,0.,0.275,3.25,0.,0.275,-3.25,-0.275,0.275,3.25,-0.275,          65P    144
0.275,-3.25,-0.275,0.,3.25,-0.275,0.,-3.25,-11.8181818181818,         65P    145
11.8181818181818,-3.14159265358979,3.14159265358979;                  65P    146
128,1,1,1,1,0,0,1,0,0,-0.6995,-0.6995,0.6995,0.6995,-0.6995,          67P    147
-0.6995,0.6995,0.6995,1.,1.,1.,1.,-0.275393700787402,                 67P    148
-0.275393700787402,3.25,0.275393700787402,-0.275393700787402,         67P    149
3.25,-0.275393700787402,0.275393700787402,3.25,                       67P    150
0.275393700787402,0.275393700787402,3.25,-0.6995,0.6995,-0.6995,      67P    151
0.6995;                                                               67P    152
502,6,-0.1875,2.29621274840129D-17,-10.25,-0.1875,                    69P    153
2.29621274840129D-17,-3.25,0.1875,2.29621274840129D-17,10.25,         69P    154
0.1875,2.29621274840129D-17,3.25,-0.275,-3.36777869765522D-17,        69P    155
-3.25,-0.275,-3.36777869765522D-17,3.25;                              69P    156
504,9,37,69,1,69,1,39,69,1,69,2,41,69,2,69,2,43,69,3,69,3,45,69,      71P    157
3,69,4,47,69,4,69,4,49,69,5,69,5,51,69,6,69,6,53,69,6,69,5;           71P    158
406,1,5HBody1;                                                        73P    159
314,62.7450980392157,62.7450980392157,62.7450980392157,13HSteel       75P    160
- Satin;                                                              75P    161
S      1G      3D     76P    161                                        T      1
