                                                                        S      1
,,11HUpper Base ,11HUpper Base ,7Hunknown,7Hunknown,32,38,7,99,15,,1.,1,G      1
4HINCH,1,0.08,15H20211218.204443,0.000393700787401575,10000.,7Hunknown, G      2
7Hunknown,11,0,15H20211216.073535;                                      G      3
     186       1                                                00000000D      1
     186            -255       1       0                               0D      2
     514       2                                                00010000D      3
     514                       2       1                               0D      4
     510       4                                                00010000D      5
     510            -255       1       1                               0D      6
     510       5                                                00010000D      7
     510            -255       1       1                               0D      8
     510       6                                                00010000D      9
     510            -255       1       1                               0D     10
     510       7                                                00010000D     11
     510            -255       1       1                               0D     12
     510       8                                                00010000D     13
     510            -255       1       1                               0D     14
     510       9                                                00010000D     15
     510            -255       1       1                               0D     16
     510      10                                                00010000D     17
     510            -255       1       1                               0D     18
     510      11                                                00010000D     19
     510            -255       1       1                               0D     20
     510      12                                                00010000D     21
     510            -255       1       1                               0D     22
     510      13                                                00010000D     23
     510            -255       1       1                               0D     24
     510      14                                                00010000D     25
     510            -255       1       1                               0D     26
     510      15                                                00010000D     27
     510            -255       1       1                               0D     28
     510      16                                                00010000D     29
     510            -255       1       1                               0D     30
     510      17                                                00010000D     31
     510            -255       1       1                               0D     32
     510      18                                                00010000D     33
     510            -255       1       1                               0D     34
     510      19                                                00010000D     35
     510            -255       1       1                               0D     36
     510      20                                                00010000D     37
     510            -255       1       1                               0D     38
     510      21                                                00010000D     39
     510            -255       1       1                               0D     40
     510      22                                                00010000D     41
     510            -255       1       1                               0D     42
     510      23                                                00010000D     43
     510            -255       1       1                               0D     44
     508      24                                                00010000D     45
     508                       1       1                               0D     46
     508      25                                                00010000D     47
     508                       1       1                               0D     48
     508      26                                                00010000D     49
     508                       1       1                               0D     50
     508      27                                                00010000D     51
     508                       1       1                               0D     52
     508      28                                                00010000D     53
     508                       1       1                               0D     54
     508      29                                                00010000D     55
     508                       2       1                               0D     56
     508      31                                                00010000D     57
     508                       1       1                               0D     58
     508      32                                                00010000D     59
     508                       1       1                               0D     60
     508      33                                                00010000D     61
     508                       3       1                               0D     62
     508      36                                                00010000D     63
     508                       1       1                               0D     64
     508      37                                                00010000D     65
     508                       2       1                               0D     66
     508      39                                                00010000D     67
     508                       1       1                               0D     68
     508      40                                                00010000D     69
     508                       1       1                               0D     70
     508      41                                                00010000D     71
     508                       1       1                               0D     72
     508      42                                                00010000D     73
     508                       3       1                               0D     74
     508      45                                                00010000D     75
     508                       1       1                               0D     76
     508      46                                                00010000D     77
     508                       1       1                               0D     78
     508      47                                                00010000D     79
     508                       1       1                               0D     80
     508      48                                                00010000D     81
     508                       1       1                               0D     82
     508      49                                                00010000D     83
     508                       1       1                               0D     84
     508      50                                                00010000D     85
     508                       1       1                               0D     86
     508      51                                                00010000D     87
     508                       2       1                               0D     88
     508      53                                                00010000D     89
     508                       1       1                               0D     90
     508      54                                                00010000D     91
     508                       1       1                               0D     92
     508      55                                                00010000D     93
     508                       2       1                               0D     94
     508      57                                                00010000D     95
     508                       1       1                               0D     96
     508      58                                                00010000D     97
     508                       1       1                               0D     98
     508      59                                                00010000D     99
     508                       1       1                               0D    100
     126      60                                                00010000D    101
     126       0               9       0                               0D    102
     126      69                                                00010000D    103
     126       0               3       0                               0D    104
     126      72                                                00010000D    105
     126       0               8       0                               0D    106
     126      80                                                00010000D    107
     126       0               9       0                               0D    108
     126      89                                                00010000D    109
     126       0               3       0                               0D    110
     126      92                                                00010000D    111
     126       0               9       0                               0D    112
     126     101                                                00010000D    113
     126       0               9       0                               0D    114
     126     110                                                00010000D    115
     126       0               2       0                               0D    116
     126     112                                                00010000D    117
     126       0               9       0                               0D    118
     126     121                                                00010000D    119
     126       0               9       0                               0D    120
     126     130                                                00010000D    121
     126       0               3       0                               0D    122
     126     133                                                00010000D    123
     126       0               9       0                               0D    124
     126     142                                                00010000D    125
     126       0               5       0                               0D    126
     126     147                                                00010000D    127
     126       0               3       0                               0D    128
     126     150                                                00010000D    129
     126       0               5       0                               0D    130
     126     155                                                00010000D    131
     126       0               4       0                               0D    132
     126     159                                                00010000D    133
     126       0               2       0                               0D    134
     126     161                                                00010000D    135
     126       0               2       0                               0D    136
     126     163                                                00010000D    137
     126       0               2       0                               0D    138
     126     165                                                00010000D    139
     126       0               5       0                               0D    140
     126     170                                                00010000D    141
     126       0               3       0                               0D    142
     126     173                                                00010000D    143
     126       0               2       0                               0D    144
     126     175                                                00010000D    145
     126       0               2       0                               0D    146
     126     177                                                00010000D    147
     126       0               2       0                               0D    148
     126     179                                                00010000D    149
     126       0               2       0                               0D    150
     126     181                                                00010000D    151
     126       0               2       0                               0D    152
     126     183                                                00010000D    153
     126       0               4       0                               0D    154
     126     187                                                00010000D    155
     126       0               3       0                               0D    156
     126     190                                                00010000D    157
     126       0               5       0                               0D    158
     126     195                                                00010000D    159
     126       0               5       0                               0D    160
     126     200                                                00010000D    161
     126       0               2       0                               0D    162
     126     202                                                00010000D    163
     126       0               5       0                               0D    164
     126     207                                                00010000D    165
     126       0               3       0                               0D    166
     126     210                                                00010000D    167
     126       0               4       0                               0D    168
     126     214                                                00010000D    169
     126       0               2       0                               0D    170
     126     216                                                00010000D    171
     126       0               2       0                               0D    172
     126     218                                                00010000D    173
     126       0               5       0                               0D    174
     126     223                                                00010000D    175
     126       0               3       0                               0D    176
     126     226                                                00010000D    177
     126       0               3       0                               0D    178
     126     229                                                00010000D    179
     126       0               2       0                               0D    180
     126     231                                                00010000D    181
     126       0               2       0                               0D    182
     126     233                                                00010000D    183
     126       0               2       0                               0D    184
     126     235                                                00010000D    185
     126       0               2       0                               0D    186
     126     237                                                00010000D    187
     126       0               5       0                               0D    188
     126     242                                                00010000D    189
     126       0               2       0                               0D    190
     126     244                                                00010000D    191
     126       0               5       0                               0D    192
     126     249                                                00010000D    193
     126       0               5       0                               0D    194
     126     254                                                00010000D    195
     126       0               2       0                               0D    196
     126     256                                                00010000D    197
     126       0               2       0                               0D    198
     126     258                                                00010000D    199
     126       0               2       0                               0D    200
     126     260                                                00010000D    201
     126       0               3       0                               0D    202
     126     263                                                00010000D    203
     126       0               3       0                               0D    204
     126     266                                                00010000D    205
     126       0               3       0                               0D    206
     126     269                                                00010000D    207
     126       0               2       0                               0D    208
     128     271                                                00010000D    209
     128       0    -255      14       0                               0D    210
     128     285                                                00010000D    211
     128       0    -255      14       0                               0D    212
     128     299                                                00010000D    213
     128       0    -255      15       0                               0D    214
     128     314                                                00010000D    215
     128       0    -255      14       0                               0D    216
     128     328                                                00010000D    217
     128       0    -255       8       0                               0D    218
     128     336                                                00010000D    219
     128       0    -255       6       0                               0D    220
     128     342                                                00010000D    221
     128       0    -255       5       0                               0D    222
     128     347                                                00010000D    223
     128       0    -255       6       0                               0D    224
     128     353                                                00010000D    225
     128       0    -255       5       0                               0D    226
     128     358                                                00010000D    227
     128       0    -255       7       0                               0D    228
     128     365                                                00010000D    229
     128       0    -255       5       0                               0D    230
     128     370                                                00010000D    231
     128       0    -255       7       0                               0D    232
     128     377                                                00010000D    233
     128       0    -255       7       0                               0D    234
     128     384                                                00010000D    235
     128       0    -255       6       0                               0D    236
     128     390                                                00010000D    237
     128       0    -255       7       0                               0D    238
     128     397                                                00010000D    239
     128       0    -255       5       0                               0D    240
     128     402                                                00010000D    241
     128       0    -255       6       0                               0D    242
     128     408                                                00010000D    243
     128       0    -255       6       0                               0D    244
     128     414                                                00010000D    245
     128       0    -255       6       0                               0D    246
     128     420                                                00010000D    247
     128       0    -255       5       0                               0D    248
     502     425                                                00010000D    249
     502                      10       1                               0D    250
     504     435                                                00010001D    251
     504                      16       1                               0D    252
     406     451                                                00000000D    253
     406                       1      15                               0D    254
     314     452                                                00000200D    255
     314                       2       0                               0D    256
186,3,1,0,0,1,253;                                                     1P      1
514,20,5,1,7,1,9,1,11,1,13,1,15,1,17,1,19,1,21,1,23,1,25,1,27,1,       3P      2
29,1,31,1,33,1,35,1,37,1,39,1,41,1,43,1;                               3P      3
510,209,1,1,45;                                                        5P      4
510,211,1,1,47;                                                        7P      5
510,213,1,1,49;                                                        9P      6
510,215,1,1,51;                                                       11P      7
510,217,1,1,53;                                                       13P      8
510,219,3,1,55,57,59;                                                 15P      9
510,221,1,1,61;                                                       17P     10
510,223,1,1,63;                                                       19P     11
510,225,3,1,65,67,69;                                                 21P     12
510,227,1,1,71;                                                       23P     13
510,229,1,1,73;                                                       25P     14
510,231,1,1,75;                                                       27P     15
510,233,1,1,77;                                                       29P     16
510,235,1,1,79;                                                       31P     17
510,237,1,1,81;                                                       33P     18
510,239,1,1,83;                                                       35P     19
510,241,1,1,85;                                                       37P     20
510,243,3,1,87,89,91;                                                 39P     21
510,245,3,1,93,95,97;                                                 41P     22
510,247,1,1,99;                                                       43P     23
508,4,0,251,1,0,0,0,251,2,1,0,0,251,3,0,0,0,251,2,0,0;                45P     24
508,4,0,251,4,0,0,0,251,5,1,0,0,251,6,0,0,0,251,5,0,0;                47P     25
508,4,0,251,7,0,0,0,251,8,1,0,0,251,9,0,0,0,251,8,0,0;                49P     26
508,4,0,251,10,0,0,0,251,11,1,0,0,251,12,0,0,0,251,11,0,0;            51P     27
508,4,0,251,13,1,0,0,251,14,1,0,0,251,15,1,0,0,251,16,1,0;            53P     28
508,6,0,251,15,0,0,0,251,17,0,0,0,251,18,0,0,0,251,19,1,0,0,251,      55P     29
20,0,0,0,251,21,0,0;                                                  55P     30
508,1,0,251,9,1,0;                                                    57P     31
508,1,0,251,12,1,0;                                                   59P     32
508,10,0,251,14,0,0,0,251,22,0,0,0,251,23,0,0,0,251,24,1,0,0,         61P     33
251,25,0,0,0,251,26,0,0,0,251,27,0,0,0,251,28,0,0,0,251,29,0,0,       61P     34
0,251,17,1,0;                                                         61P     35
508,4,0,251,30,1,0,0,251,31,1,0,0,251,32,1,0,0,251,25,1,0;            63P     36
508,6,0,251,32,0,0,0,251,33,0,0,0,251,34,0,0,0,251,35,0,0,0,251,      65P     37
36,0,0,0,251,26,1,0;                                                  65P     38
508,1,0,251,3,1,0;                                                    67P     39
508,1,0,251,6,1,0;                                                    69P     40
508,4,0,251,37,1,0,0,251,38,1,0,0,251,34,1,0,0,251,39,1,0;            71P     41
508,10,0,251,38,0,0,0,251,40,0,0,0,251,41,0,0,0,251,42,1,0,0,         73P     42
251,43,0,0,0,251,19,0,0,0,251,44,0,0,0,251,45,0,0,0,251,46,0,0,       73P     43
0,251,35,1,0;                                                         73P     44
508,4,0,251,47,1,0,0,251,48,1,0,0,251,20,1,0,0,251,43,1,0;            75P     45
508,4,0,251,44,1,0,0,251,18,1,0,0,251,29,1,0,0,251,49,1,0;            77P     46
508,4,0,251,27,1,0,0,251,36,1,0,0,251,46,1,0,0,251,50,1,0;            79P     47
508,4,0,251,16,0,0,0,251,21,1,0,0,251,48,0,0,0,251,51,1,0;            81P     48
508,4,0,251,49,0,0,0,251,28,1,0,0,251,50,0,0,0,251,45,1,0;            83P     49
508,4,0,251,31,0,0,0,251,52,1,0,0,251,39,0,0,0,251,33,1,0;            85P     50
508,6,0,251,30,0,0,0,251,24,0,0,0,251,53,0,0,0,251,40,1,0,0,251,      87P     51
37,0,0,0,251,52,0,0;                                                  87P     52
508,1,0,251,1,1,0;                                                    89P     53
508,1,0,251,4,1,0;                                                    91P     54
508,6,0,251,13,0,0,0,251,51,0,0,0,251,47,0,0,0,251,42,0,0,0,251,      93P     55
54,0,0,0,251,22,1,0;                                                  93P     56
508,1,0,251,7,1,0;                                                    95P     57
508,1,0,251,10,1,0;                                                   97P     58
508,4,0,251,54,1,0,0,251,41,1,0,0,251,53,1,0,0,251,23,1,0;            99P     59
126,8,2,0,1,0,0,-3.14159265358979,-3.14159265358979,                 101P     60
-3.14159265358979,-1.5707963267949,-1.5707963267949,0.,0.,           101P     61
1.5707963267949,1.5707963267949,3.14159265358979,                    101P     62
3.14159265358979,3.14159265358979,1.,0.707106781186551,1.,           101P     63
0.707106781186551,1.,0.707106781186551,1.,0.707106781186551,1.,      101P     64
2.875,1.25,0.25,2.875,1.25,0.375,2.75,1.25,0.375,2.625,1.25,         101P     65
0.375,2.625,1.25,0.25,2.625,1.25,0.125,2.75,1.25,0.125,2.875,        101P     66
1.25,0.125,2.875,1.25,0.25,-3.14159265358979,3.14159265358979,       101P     67
0.,0.,0.;                                                            101P     68
126,1,1,0,0,1,0,1.3987061727561D-15,1.3987061727561D-15,             103P     69
0.400000000000001,0.400000000000001,1.,1.,2.875,1.25,0.25,2.875,     103P     70
1.2,0.25,1.3987061727561D-15,0.400000000000001,0.,0.,0.;             103P     71
126,8,2,0,1,0,0,-3.14159265358979,-3.14159265358979,                 105P     72
-3.14159265358979,-1.5707963267949,-1.5707963267949,0.,0.,           105P     73
1.5707963267949,1.5707963267949,3.14159265358979,                    105P     74
3.14159265358979,3.14159265358979,1.,0.707106781186551,1.,           105P     75
0.707106781186551,1.,0.707106781186551,1.,0.707106781186551,1.,      105P     76
2.875,1.2,0.25,2.875,1.2,0.125,2.75,1.2,0.125,2.625,1.2,0.125,       105P     77
2.625,1.2,0.25,2.625,1.2,0.375,2.75,1.2,0.375,2.875,1.2,0.375,       105P     78
2.875,1.2,0.25,-3.14159265358979,3.14159265358979,0.,0.,0.;          105P     79
126,8,2,0,1,0,0,-3.14159265358979,-3.14159265358979,                 107P     80
-3.14159265358979,-1.5707963267949,-1.5707963267949,0.,0.,           107P     81
1.5707963267949,1.5707963267949,3.14159265358979,                    107P     82
3.14159265358979,3.14159265358979,1.,0.707106781186543,1.,           107P     83
0.707106781186551,1.,0.707106781186551,1.,0.707106781186543,1.,      107P     84
-2.625,1.25,0.25,-2.625,1.25,0.375,-2.75,1.25,0.375,-2.875,1.25,     107P     85
0.375,-2.875,1.25,0.25,-2.875,1.25,0.125,-2.75,1.25,0.125,           107P     86
-2.625,1.25,0.125,-2.625,1.25,0.25,-3.14159265358979,                107P     87
3.14159265358979,0.,0.,0.;                                           107P     88
126,1,1,0,0,1,0,1.3987061727561D-15,1.3987061727561D-15,             109P     89
0.400000000000001,0.400000000000001,1.,1.,-2.625,1.25,0.25,          109P     90
-2.625,1.2,0.25,1.3987061727561D-15,0.400000000000001,0.,0.,0.;      109P     91
126,8,2,0,1,0,0,-3.14159265358979,-3.14159265358979,                 111P     92
-3.14159265358979,-1.5707963267949,-1.5707963267949,0.,0.,           111P     93
1.5707963267949,1.5707963267949,3.14159265358979,                    111P     94
3.14159265358979,3.14159265358979,1.,0.707106781186543,1.,           111P     95
0.707106781186551,1.,0.707106781186551,1.,0.707106781186543,1.,      111P     96
-2.625,1.2,0.25,-2.625,1.2,0.125,-2.75,1.2,0.125,-2.875,1.2,         111P     97
0.125,-2.875,1.2,0.25,-2.875,1.2,0.375,-2.75,1.2,0.375,-2.625,       111P     98
1.2,0.375,-2.625,1.2,0.25,-3.14159265358979,3.14159265358979,0.,     111P     99
0.,0.;                                                               111P    100
126,8,2,0,1,0,0,-3.14159265358979,-3.14159265358979,                 113P    101
-3.14159265358979,-1.5707963267949,-1.5707963267949,0.,0.,           113P    102
1.5707963267949,1.5707963267949,3.14159265358979,                    113P    103
3.14159265358979,3.14159265358979,1.,0.707106781186551,1.,           113P    104
0.707106781186551,1.,0.707106781186551,1.,0.707106781186551,1.,      113P    105
2.625,-1.25,0.25,2.625,-1.25,0.375,2.75,-1.25,0.375,2.875,-1.25,     113P    106
0.375,2.875,-1.25,0.25,2.875,-1.25,0.125000000000001,2.75,-1.25,     113P    107
0.125000000000001,2.625,-1.25,0.125000000000001,2.625,-1.25,         113P    108
0.25,-3.14159265358979,3.14159265358979,0.,0.,0.;                    113P    109
126,1,1,0,0,1,0,0.,0.,0.399999999999997,0.399999999999997,1.,1.,     115P    110
2.625,-1.25,0.25,2.625,-1.2,0.25,0.,0.399999999999997,0.,0.,0.;      115P    111
126,8,2,0,1,0,0,-3.14159265358979,-3.14159265358979,                 117P    112
-3.14159265358979,-1.5707963267949,-1.5707963267949,0.,0.,           117P    113
1.5707963267949,1.5707963267949,3.14159265358979,                    117P    114
3.14159265358979,3.14159265358979,1.,0.707106781186551,1.,           117P    115
0.707106781186551,1.,0.707106781186551,1.,0.707106781186551,1.,      117P    116
2.625,-1.2,0.25,2.625,-1.2,0.125000000000001,2.75,-1.2,              117P    117
0.125000000000001,2.875,-1.2,0.125000000000001,2.875,-1.2,0.25,      117P    118
2.875,-1.2,0.375,2.75,-1.2,0.375,2.625,-1.2,0.375,2.625,-1.2,        117P    119
0.25,-3.14159265358979,3.14159265358979,0.,0.,0.;                    117P    120
126,8,2,0,1,0,0,-3.14159265358979,-3.14159265358979,                 119P    121
-3.14159265358979,-1.5707963267949,-1.5707963267949,0.,0.,           119P    122
1.5707963267949,1.5707963267949,3.14159265358979,                    119P    123
3.14159265358979,3.14159265358979,1.,0.707106781186543,1.,           119P    124
0.707106781186551,1.,0.707106781186551,1.,0.707106781186543,1.,      119P    125
-2.875,-1.25,0.25,-2.875,-1.25,0.375,-2.75,-1.25,0.375,-2.625,       119P    126
-1.25,0.375,-2.625,-1.25,0.25,-2.625,-1.25,0.125,-2.75,-1.25,        119P    127
0.125,-2.875,-1.25,0.125,-2.875,-1.25,0.25,-3.14159265358979,        119P    128
3.14159265358979,0.,0.,0.;                                           119P    129
126,1,1,0,0,1,0,0.,0.,0.399999999999997,0.399999999999997,1.,1.,     121P    130
-2.875,-1.25,0.25,-2.875,-1.2,0.25,0.,0.399999999999997,0.,0.,       121P    131
0.;                                                                  121P    132
126,8,2,0,1,0,0,-3.14159265358979,-3.14159265358979,                 123P    133
-3.14159265358979,-1.5707963267949,-1.5707963267949,0.,0.,           123P    134
1.5707963267949,1.5707963267949,3.14159265358979,                    123P    135
3.14159265358979,3.14159265358979,1.,0.707106781186543,1.,           123P    136
0.707106781186551,1.,0.707106781186551,1.,0.707106781186543,1.,      123P    137
-2.875,-1.2,0.25,-2.875,-1.2,0.125,-2.75,-1.2,0.125,-2.625,-1.2,     123P    138
0.125,-2.625,-1.2,0.25,-2.625,-1.2,0.375,-2.75,-1.2,0.375,           123P    139
-2.875,-1.2,0.375,-2.875,-1.2,0.25,-3.14159265358979,                123P    140
3.14159265358979,0.,0.,0.;                                           123P    141
126,2,2,0,0,0,0,-0.785398163397448,-0.785398163397448,               125P    142
-0.785398163397448,0.785398163397449,0.785398163397449,              125P    143
0.785398163397449,1.,0.707106781186548,1.,2.75000000000001,          125P    144
-1.25,0.5,3.,-1.25,0.5,3.,-1.25,0.25,-0.785398163397448,             125P    145
0.785398163397449,0.,0.,0.;                                          125P    146
126,1,1,0,0,1,0,-0.0317500000000006,-0.0317500000000006,             127P    147
0.0952499999999983,0.0952499999999983,1.,1.,3.,-1.25,0.25,3.,        127P    148
-1.2,0.25,-0.0317500000000006,0.0952499999999983,0.,0.,0.;           127P    149
126,2,2,0,0,0,0,-0.785398163397449,-0.785398163397449,               129P    150
-0.785398163397449,0.785398163397448,0.785398163397448,              129P    151
0.785398163397448,1.,0.707106781186548,1.,3.,-1.2,0.25,3.,-1.2,      129P    152
0.5,2.75000000000001,-1.2,0.5,-0.785398163397449,                    129P    153
0.785398163397448,0.,0.,0.;                                          129P    154
126,1,1,0,0,1,0,-0.0952499999999983,-0.0952499999999983,             131P    155
0.0317500000000006,0.0317500000000006,1.,1.,2.75000000000001,        131P    156
-1.2,0.5,2.75000000000001,-1.25,0.5,-0.0952499999999983,             131P    157
0.0317500000000006,0.,0.,0.;                                         131P    158
126,1,1,0,0,1,0,0.0635,0.0635,0.508,0.508,1.,1.,3.,-1.2,0.075,       133P    159
3.,-1.2,0.25,0.0635,0.508,0.,0.,0.;                                  133P    160
126,1,1,0,0,1,0,-11.43,-11.43,3.81,3.81,1.,1.,-3.,-1.2,0.075,3.,     135P    161
-1.2,0.075,-11.43,3.81,0.,0.,0.;                                     135P    162
126,1,1,0,0,1,0,0.0635,0.0635,0.508,0.508,1.,1.,-3.,-1.2,0.075,      137P    163
-3.,-1.2,0.25,0.0635,0.508,0.,0.,0.;                                 137P    164
126,2,2,0,0,0,0,5.49778714378214,5.49778714378214,                   139P    165
5.49778714378214,7.06858347057703,7.06858347057703,                  139P    166
7.06858347057703,1.,0.70710678118655,1.,-2.75,-1.2,0.5,              139P    167
-2.99999999999999,-1.2,0.5,-3.,-1.2,0.25,5.49778714378214,           139P    168
7.06858347057703,0.,0.,0.;                                           139P    169
126,1,1,0,0,1,0,-14.605,-14.605,-0.635,-0.635,1.,1.,                 141P    170
2.75000000000001,-1.2,0.5,-2.75,-1.2,0.5,-14.605,-0.635,0.,0.,       141P    171
0.;                                                                  141P    172
126,1,1,0,0,1,0,0.,0.,0.635,0.635,1.,1.,3.,-1.25,0.,3.,-1.25,        143P    173
0.25,0.,0.635,0.,0.,0.;                                              143P    174
126,1,1,0,0,1,0,0.,0.,6.35,6.35,1.,1.,3.,1.25,0.,3.,-1.25,0.,0.,     145P    175
6.35,0.,0.,0.;                                                       145P    176
126,1,1,0,0,1,0,0.,0.,0.635,0.635,1.,1.,3.,1.25,0.,3.,1.25,0.25,     147P    177
0.,0.635,0.,0.,0.;                                                   147P    178
126,1,1,0,0,1,0,3.07975,3.07975,3.20675,3.20675,1.,1.,3.,1.2,        149P    179
0.25,3.,1.25,0.25,3.07975,3.20675,0.,0.,0.;                          149P    180
126,1,1,0,0,1,0,0.0635,0.0635,0.508,0.508,1.,1.,3.,1.2,0.075,3.,     151P    181
1.2,0.25,0.0635,0.508,0.,0.,0.;                                      151P    182
126,2,2,0,0,0,0,-0.785398163397444,-0.785398163397444,               153P    183
-0.785398163397444,0.785398163397453,0.785398163397453,              153P    184
0.785398163397453,1.,0.707106781186558,1.,3.,1.175,0.05,3.,1.2,      153P    185
0.05,3.,1.2,0.075,-0.785398163397444,0.785398163397453,0.,0.,0.;     153P    186
126,1,1,0,0,1,0,-6.1595,-6.1595,-0.190499999999999,                  155P    187
-0.190499999999999,1.,1.,3.,-1.175,0.05,3.,1.175,0.05,-6.1595,       155P    188
-0.190499999999999,0.,0.,0.;                                         155P    189
126,2,2,0,0,0,0,-0.785398163397446,-0.785398163397446,               157P    190
-0.785398163397446,0.785398163397458,0.785398163397458,              157P    191
0.785398163397458,1.,0.707106781186543,1.,3.,-1.2,0.075,3.,-1.2,     157P    192
0.0499999999999998,3.,-1.175,0.05,-0.785398163397446,                157P    193
0.785398163397458,0.,0.,0.;                                          157P    194
126,2,2,0,0,0,0,-0.785398163397449,-0.785398163397449,               159P    195
-0.785398163397449,0.785398163397447,0.785398163397447,              159P    196
0.785398163397447,1.,0.70710678118655,1.,3.,1.25,0.25,3.,1.25,       159P    197
0.5,2.75000000000001,1.25,0.5,-0.785398163397449,                    159P    198
0.785398163397447,0.,0.,0.;                                          159P    199
126,1,1,0,0,1,0,-3.20675,-3.20675,-3.07975,-3.07975,1.,1.,2.75,      161P    200
1.25,0.5,2.75000000000001,1.2,0.5,-3.20675,-3.07975,0.,0.,0.;        161P    201
126,2,2,0,0,0,0,5.49778714378214,5.49778714378214,                   163P    202
5.49778714378214,7.06858347057703,7.06858347057703,                  163P    203
7.06858347057703,1.,0.707106781186551,1.,2.75000000000001,1.2,       163P    204
0.5,3.,1.2,0.5,3.,1.2,0.25,5.49778714378214,7.06858347057703,0.,     163P    205
0.,0.;                                                               163P    206
126,1,1,0,0,1,0,0.635000000000002,0.635000000000002,14.605,          165P    207
14.605,1.,1.,-2.75,1.2,0.5,2.75000000000001,1.2,0.5,                 165P    208
0.635000000000002,14.605,0.,0.,0.;                                   165P    209
126,2,2,0,0,0,0,-0.785398163397448,-0.785398163397448,               167P    210
-0.785398163397448,0.785398163397448,0.785398163397448,              167P    211
0.785398163397448,1.,0.707106781186548,1.,-3.,1.2,0.25,-3.,1.2,      167P    212
0.5,-2.75,1.2,0.5,-0.785398163397448,0.785398163397448,0.,0.,0.;     167P    213
126,1,1,0,0,1,0,0.0635,0.0635,0.508,0.508,1.,1.,-3.,1.2,0.075,       169P    214
-3.,1.2,0.25,0.0635,0.508,0.,0.,0.;                                  169P    215
126,1,1,0,0,1,0,-11.43,-11.43,3.81,3.81,1.,1.,3.,1.2,0.075,-3.,      171P    216
1.2,0.075,-11.43,3.81,0.,0.,0.;                                      171P    217
126,2,2,0,0,0,0,-0.785398163397448,-0.785398163397448,               173P    218
-0.785398163397448,0.785398163397449,0.785398163397449,              173P    219
0.785398163397449,1.,0.707106781186548,1.,-2.75,1.25,0.5,-3.,        173P    220
1.25,0.5,-3.,1.25,0.25,-0.785398163397448,0.785398163397449,0.,      173P    221
0.,0.;                                                               173P    222
126,1,1,0,0,1,0,-0.0317500000000002,-0.0317500000000002,             175P    223
0.0952499999999996,0.0952499999999996,1.,1.,-3.,1.25,0.25,-3.,       175P    224
1.2,0.25,-0.0317500000000002,0.0952499999999996,0.,0.,0.;            175P    225
126,1,1,0,0,1,0,-0.0952499999999996,-0.0952499999999996,             177P    226
0.0317500000000002,0.0317500000000002,1.,1.,-2.75,1.2,0.5,-2.75,     177P    227
1.25,0.5,-0.0952499999999996,0.0317500000000002,0.,0.,0.;            177P    228
126,1,1,0,0,1,0,0.,0.,0.635,0.635,1.,1.,-3.,1.25,0.,-3.,1.25,        179P    229
0.25,0.,0.635,0.,0.,0.;                                              179P    230
126,1,1,0,0,1,0,0.,0.,6.35,6.35,1.,1.,-3.,-1.25,0.,-3.,1.25,0.,      181P    231
0.,6.35,0.,0.,0.;                                                    181P    232
126,1,1,0,0,1,0,0.,0.,0.635,0.635,1.,1.,-3.,-1.25,0.,-3.,-1.25,      183P    233
0.25,0.,0.635,0.,0.,0.;                                              183P    234
126,1,1,0,0,1,0,3.07975,3.07975,3.20675,3.20675,1.,1.,-3.,-1.2,      185P    235
0.25,-3.,-1.25,0.25,3.07975,3.20675,0.,0.,0.;                        185P    236
126,2,2,0,0,0,0,-0.785398163397451,-0.785398163397451,               187P    237
-0.785398163397451,0.785398163397446,0.785398163397446,              187P    238
0.785398163397446,1.,0.707106781186558,1.,-2.99999999999999,         187P    239
-1.175,0.05,-2.99999999999999,-1.2,0.05,-2.99999999999999,-1.2,      187P    240
0.075,-0.785398163397451,0.785398163397446,0.,0.,0.;                 187P    241
126,1,1,0,0,1,0,-6.1595,-6.1595,-0.1905,-0.1905,1.,1.,-3.,1.175,     189P    242
0.05,-3.,-1.175,0.05,-6.1595,-0.1905,0.,0.,0.;                       189P    243
126,2,2,0,0,0,0,-0.785398163397453,-0.785398163397453,               191P    244
-0.785398163397453,0.785398163397451,0.785398163397451,              191P    245
0.785398163397451,1.,0.707106781186543,1.,-3.,1.2,0.075,-3.,1.2,     191P    246
0.0499999999999998,-3.,1.175,0.05,-0.785398163397453,                191P    247
0.785398163397451,0.,0.,0.;                                          191P    248
126,2,2,0,0,0,0,-0.785398163397449,-0.785398163397449,               193P    249
-0.785398163397449,0.78539816339745,0.78539816339745,                193P    250
0.78539816339745,1.,0.707106781186548,1.,-3.,-1.25,0.25,-3.,         193P    251
-1.25,0.5,-2.74999999999999,-1.25,0.5,-0.785398163397449,            193P    252
0.78539816339745,0.,0.,0.;                                           193P    253
126,1,1,0,0,1,0,-3.20675,-3.20675,-3.07975,-3.07975,1.,1.,-2.75,     195P    254
-1.25,0.5,-2.75,-1.2,0.5,-3.20675,-3.07975,0.,0.,0.;                 195P    255
126,1,1,0,0,1,0,-3.81,-3.81,11.43,11.43,1.,1.,3.,-1.175,0.05,        197P    256
-2.99999999999999,-1.175,0.05,-3.81,11.43,0.,0.,0.;                  197P    257
126,1,1,0,0,1,0,-3.81,-3.81,11.43,11.43,1.,1.,-3.,1.175,0.05,3.,     199P    258
1.175,0.05,-3.81,11.43,0.,0.,0.;                                     199P    259
126,1,1,0,0,1,0,-14.605,-14.605,-0.635,-0.635,1.,1.,                 201P    260
-2.74999999999999,-1.25,0.5,2.75000000000001,-1.25,0.5,-14.605,      201P    261
-0.635,0.,0.,0.;                                                     201P    262
126,1,1,0,0,1,0,0.634999999999999,0.634999999999999,14.605,          203P    263
14.605,1.,1.,2.75000000000001,1.25,0.5,-2.75,1.25,0.5,               203P    264
0.634999999999999,14.605,0.,0.,0.;                                   203P    265
126,1,1,0,0,1,0,1.29406316473263D-32,1.29406316473263D-32,15.24,     205P    266
15.24,1.,1.,-3.,1.25,0.,3.,1.25,0.,1.29406316473263D-32,15.24,       205P    267
0.,0.,0.;                                                            205P    268
126,1,1,0,0,1,0,0.,0.,15.24,15.24,1.,1.,3.,-1.25,0.,-3.,-1.25,       207P    269
0.,0.,15.24,0.,0.,0.;                                                207P    270
128,1,8,1,2,0,1,0,0,1,1.3987061727561D-15,1.3987061727561D-15,       209P    271
0.400000000000001,0.400000000000001,-3.14159265358979,               209P    272
-3.14159265358979,-3.14159265358979,-1.5707963267949,                209P    273
-1.5707963267949,0.,0.,1.5707963267949,1.5707963267949,              209P    274
3.14159265358979,3.14159265358979,3.14159265358979,1.,1.,            209P    275
0.707106781186548,0.707106781186548,1.,1.,0.707106781186548,         209P    276
0.707106781186548,1.,1.,0.707106781186548,0.707106781186548,1.,      209P    277
1.,0.707106781186548,0.707106781186548,1.,1.,2.875,1.25,0.25,        209P    278
2.875,1.2,0.25,2.875,1.25,0.375,2.875,1.2,0.375,2.75,1.25,0.375,     209P    279
2.75,1.2,0.375,2.625,1.25,0.375,2.625,1.2,0.375,2.625,1.25,0.25,     209P    280
2.625,1.2,0.25,2.625,1.25,0.125,2.625,1.2,0.125,2.75,1.25,0.125,     209P    281
2.75,1.2,0.125,2.875,1.25,0.125,2.875,1.2,0.125,2.875,1.25,0.25,     209P    282
2.875,1.2,0.25,1.3987061727561D-15,0.400000000000001,                209P    283
-3.14159265358979,3.14159265358979;                                  209P    284
128,1,8,1,2,0,1,0,0,1,1.3987061727561D-15,1.3987061727561D-15,       211P    285
0.400000000000001,0.400000000000001,-3.14159265358979,               211P    286
-3.14159265358979,-3.14159265358979,-1.5707963267949,                211P    287
-1.5707963267949,0.,0.,1.5707963267949,1.5707963267949,              211P    288
3.14159265358979,3.14159265358979,3.14159265358979,1.,1.,            211P    289
0.707106781186548,0.707106781186548,1.,1.,0.707106781186548,         211P    290
0.707106781186548,1.,1.,0.707106781186548,0.707106781186548,1.,      211P    291
1.,0.707106781186548,0.707106781186548,1.,1.,-2.625,1.25,0.25,       211P    292
-2.625,1.2,0.25,-2.625,1.25,0.375,-2.625,1.2,0.375,-2.75,1.25,       211P    293
0.375,-2.75,1.2,0.375,-2.875,1.25,0.375,-2.875,1.2,0.375,-2.875,     211P    294
1.25,0.25,-2.875,1.2,0.25,-2.875,1.25,0.125,-2.875,1.2,0.125,        211P    295
-2.75,1.25,0.125,-2.75,1.2,0.125,-2.625,1.25,0.125,-2.625,1.2,       211P    296
0.125,-2.625,1.25,0.25,-2.625,1.2,0.25,1.3987061727561D-15,          211P    297
0.400000000000001,-3.14159265358979,3.14159265358979;                211P    298
128,1,8,1,2,0,1,0,0,1,0.,0.,0.399999999999997,0.399999999999997,     213P    299
-3.14159265358979,-3.14159265358979,-3.14159265358979,               213P    300
-1.5707963267949,-1.5707963267949,0.,0.,1.5707963267949,             213P    301
1.5707963267949,3.14159265358979,3.14159265358979,                   213P    302
3.14159265358979,1.,1.,0.707106781186548,0.707106781186548,1.,       213P    303
1.,0.707106781186548,0.707106781186548,1.,1.,0.707106781186548,      213P    304
0.707106781186548,1.,1.,0.707106781186548,0.707106781186548,1.,      213P    305
1.,2.625,-1.25,0.25,2.625,-1.2,0.25,2.625,-1.25,0.375,2.625,         213P    306
-1.2,0.375,2.75,-1.25,0.375,2.75,-1.2,0.375,2.875,-1.25,0.375,       213P    307
2.875,-1.2,0.375,2.875,-1.25,0.25,2.875,-1.2,0.25,2.875,-1.25,       213P    308
0.125000000000001,2.875,-1.2,0.125000000000001,2.75,-1.25,           213P    309
0.125000000000001,2.75,-1.2,0.125000000000001,2.625,-1.25,           213P    310
0.125000000000001,2.625,-1.2,0.125000000000001,2.625,-1.25,0.25,     213P    311
2.625,-1.2,0.25,0.,0.399999999999997,-3.14159265358979,              213P    312
3.14159265358979;                                                    213P    313
128,1,8,1,2,0,1,0,0,1,0.,0.,0.399999999999997,0.399999999999997,     215P    314
-3.14159265358979,-3.14159265358979,-3.14159265358979,               215P    315
-1.5707963267949,-1.5707963267949,0.,0.,1.5707963267949,             215P    316
1.5707963267949,3.14159265358979,3.14159265358979,                   215P    317
3.14159265358979,1.,1.,0.707106781186548,0.707106781186548,1.,       215P    318
1.,0.707106781186548,0.707106781186548,1.,1.,0.707106781186548,      215P    319
0.707106781186548,1.,1.,0.707106781186548,0.707106781186548,1.,      215P    320
1.,-2.875,-1.25,0.25,-2.875,-1.2,0.25,-2.875,-1.25,0.375,-2.875,     215P    321
-1.2,0.375,-2.75,-1.25,0.375,-2.75,-1.2,0.375,-2.625,-1.25,          215P    322
0.375,-2.625,-1.2,0.375,-2.625,-1.25,0.25,-2.625,-1.2,0.25,          215P    323
-2.625,-1.25,0.125,-2.625,-1.2,0.125,-2.75,-1.25,0.125,-2.75,        215P    324
-1.2,0.125,-2.875,-1.25,0.125,-2.875,-1.2,0.125,-2.875,-1.25,        215P    325
0.25,-2.875,-1.2,0.25,0.,0.399999999999997,-3.14159265358979,        215P    326
3.14159265358979;                                                    215P    327
128,1,2,1,2,0,0,0,0,0,-0.0500000000000011,-0.0500000000000011,       217P    328
0.149999999999997,0.149999999999997,-0.785398163397448,              217P    329
-0.785398163397448,-0.785398163397448,0.785398163397448,             217P    330
0.785398163397448,0.785398163397448,1.,1.,0.707106781186548,         217P    331
0.707106781186548,1.,1.,2.75000000000001,-1.2,0.5,                   217P    332
2.75000000000001,-1.25,0.5,3.,-1.2,0.5,3.,-1.25,0.5,3.,-1.2,         217P    333
0.25,3.,-1.25,0.25,-0.0500000000000011,0.149999999999997,            217P    334
-0.785398163397448,0.785398163397448;                                217P    335
128,1,1,1,1,0,0,1,0,0,-0.00100000000000001,-0.00100000000000001,     219P    336
15.241,15.241,0.0625,0.0625,1.144,1.144,1.,1.,1.,1.,                 219P    337
3.00039370078741,-1.2,0.0746062992125984,-3.0003937007874,-1.2,      219P    338
0.0746062992125984,3.00039370078741,-1.2,0.500393700787402,          219P    339
-3.0003937007874,-1.2,0.500393700787402,-0.00100000000000001,        219P    340
15.241,0.0625,1.144;                                                 219P    341
128,1,1,1,1,0,0,1,0,0,-0.001,-0.001,6.351,6.351,-0.001,-0.001,       221P    342
0.636,0.636,1.,1.,1.,1.,3.,-1.2503937007874,                         221P    343
-0.000393700787401575,3.,1.2503937007874,-0.000393700787401575,      221P    344
3.,-1.2503937007874,0.250393700787402,3.,1.2503937007874,            221P    345
0.250393700787402,-0.001,6.351,-0.001,0.636;                         221P    346
128,1,2,1,2,0,0,0,0,0,4.85,4.85,5.05,5.05,-0.785398163397449,        223P    347
-0.785398163397449,-0.785398163397449,0.785398163397449,             223P    348
0.785398163397449,0.785398163397449,1.,1.,0.707106781186547,         223P    349
0.707106781186547,1.,1.,2.75,1.25,0.5,2.75000000000001,1.2,0.5,      223P    350
3.,1.25,0.5,3.,1.2,0.5,3.,1.25,0.25,3.,1.2,0.25,4.85,5.05,           223P    351
-0.785398163397449,0.785398163397449;                                223P    352
128,1,1,1,1,0,0,1,0,0,-0.001,-0.001,15.241,15.241,0.0625,0.0625,     225P    353
1.144,1.144,1.,1.,1.,1.,-3.0003937007874,1.2,0.0746062992125984,     225P    354
3.00039370078741,1.2,0.0746062992125984,-3.0003937007874,1.2,        225P    355
0.500393700787402,3.00039370078741,1.2,0.500393700787402,-0.001,     225P    356
15.241,0.0625,1.144;                                                 225P    357
128,1,2,1,2,0,0,0,0,0,-0.0500000000000003,-0.0500000000000003,       227P    358
0.149999999999999,0.149999999999999,-0.785398163397448,              227P    359
-0.785398163397448,-0.785398163397448,0.785398163397448,             227P    360
0.785398163397448,0.785398163397448,1.,1.,0.707106781186548,         227P    361
0.707106781186548,1.,1.,-2.75,1.2,0.5,-2.75,1.25,0.5,-3.,1.2,        227P    362
0.5,-3.,1.25,0.5,-3.,1.2,0.25,-3.,1.25,0.25,-0.0500000000000003,     227P    363
0.149999999999999,-0.785398163397448,0.785398163397448;              227P    364
128,1,1,1,1,0,0,1,0,0,-0.001,-0.001,6.351,6.351,-0.001,-0.001,       229P    365
0.636,0.636,1.,1.,1.,1.,-3.,1.2503937007874,                         229P    366
-0.000393700787401575,-3.,-1.2503937007874,                          229P    367
-0.000393700787401575,-3.,1.2503937007874,0.250393700787402,-3.,     229P    368
-1.2503937007874,0.250393700787402,-0.001,6.351,-0.001,0.636;        229P    369
128,1,2,1,2,0,0,0,0,0,4.85,4.85,5.05,5.05,-0.78539816339745,         231P    370
-0.78539816339745,-0.78539816339745,0.785398163397448,               231P    371
0.785398163397448,0.785398163397448,1.,1.,0.707106781186547,         231P    372
0.707106781186547,1.,1.,-2.74999999999999,-1.25,0.5,                 231P    373
-2.74999999999999,-1.2,0.5,-3.,-1.25,0.5,-3.,-1.2,0.5,-3.,-1.25,     231P    374
0.25,-3.,-1.2,0.25,4.85,5.05,-0.78539816339745,                      231P    375
0.785398163397448;                                                   231P    376
128,1,2,1,2,0,0,0,0,0,-180.,-180.,60.,60.,-0.785398163397456,        233P    377
-0.785398163397456,-0.785398163397456,0.785398163397461,             233P    378
0.785398163397461,0.785398163397461,1.,1.,0.70710678118654,          233P    379
0.70710678118654,1.,1.,-3.,-1.2,0.0750000000000003,3.,-1.2,          233P    380
0.0750000000000003,-3.,-1.2,0.0499999999999998,3.,-1.2,              233P    381
0.0499999999999998,-3.,-1.175,0.05,3.,-1.175,0.05,-180.,60.,         233P    382
-0.785398163397456,0.785398163397461;                                233P    383
128,1,2,1,2,0,0,0,0,0,-180.,-180.,60.,60.,-0.785398163397453,        235P    384
-0.785398163397453,-0.785398163397453,0.785398163397451,             235P    385
0.785398163397451,0.785398163397451,1.,1.,0.707106781186545,         235P    386
0.707106781186545,1.,1.,3.,1.2,0.075,-3.,1.2,0.075,3.,1.2,           235P    387
0.0499999999999998,-3.,1.2,0.0499999999999998,3.,1.175,0.05,-3.,     235P    388
1.175,0.05,-180.,60.,-0.785398163397453,0.785398163397451;           235P    389
128,1,1,1,1,0,0,1,0,0,-6.986,-6.986,6.986,6.986,                     237P    390
-0.0645000000000003,-0.0645000000000003,0.0645000000000003,          237P    391
0.0645000000000003,1.,1.,1.,1.,-2.7503937007874,                     237P    392
-1.2503937007874,0.5,2.75039370078741,-1.2503937007874,0.5,          237P    393
-2.7503937007874,-1.1996062992126,0.5,2.75039370078741,              237P    394
-1.1996062992126,0.5,-6.986,6.986,-0.0645000000000003,               237P    395
0.0645000000000003;                                                  237P    396
128,1,1,1,1,0,0,1,0,0,-7.621,-7.621,7.621,7.621,-2.9855,-2.9855,     239P    397
2.9855,2.9855,1.,1.,1.,1.,-3.0003937007874,-1.1753937007874,         239P    398
0.05,3.00039370078741,-1.1753937007874,0.05,-3.0003937007874,        239P    399
1.1753937007874,0.05,3.00039370078741,1.1753937007874,0.05,          239P    400
-7.621,7.621,-2.9855,2.9855;                                         239P    401
128,1,1,1,1,0,0,1,0,0,-6.986,-6.986,6.986,6.986,                     241P    402
-0.0644999999999999,-0.0644999999999999,0.0644999999999999,          241P    403
0.0644999999999999,1.,1.,1.,1.,-2.7503937007874,1.1996062992126,     241P    404
0.5,2.75039370078741,1.1996062992126,0.5,-2.7503937007874,           241P    405
1.2503937007874,0.5,2.75039370078741,1.2503937007874,0.5,-6.986,     241P    406
6.986,-0.0644999999999999,0.0644999999999999;                        241P    407
128,1,1,1,1,0,0,1,0,0,-0.00100000000000001,-0.00100000000000001,     243P    408
15.241,15.241,-0.001,-0.001,1.271,1.271,1.,1.,1.,1.,                 243P    409
3.00039370078741,1.25,-0.000393700787401575,-3.0003937007874,        243P    410
1.25,-0.000393700787401575,3.00039370078741,1.25,                    243P    411
0.500393700787402,-3.0003937007874,1.25,0.500393700787402,           243P    412
-0.00100000000000001,15.241,-0.001,1.271;                            243P    413
128,1,1,1,1,0,0,1,0,0,-0.001,-0.001,15.241,15.241,-0.001,-0.001,     245P    414
1.271,1.271,1.,1.,1.,1.,-3.0003937007874,-1.25,                      245P    415
-0.000393700787401575,3.00039370078741,-1.25,                        245P    416
-0.000393700787401575,-3.0003937007874,-1.25,0.500393700787402,      245P    417
3.00039370078741,-1.25,0.500393700787402,-0.001,15.241,-0.001,       245P    418
1.271;                                                               245P    419
128,1,1,1,1,0,0,1,0,0,-7.621,-7.621,7.621,7.621,-3.176,-3.176,       247P    420
3.176,3.176,1.,1.,1.,1.,3.00039370078741,-1.2503937007874,0.,        247P    421
-3.0003937007874,-1.2503937007874,0.,3.00039370078741,               247P    422
1.2503937007874,0.,-3.0003937007874,1.2503937007874,0.,-7.621,       247P    423
7.621,-3.176,3.176;                                                  247P    424
502,36,2.875,1.25,0.25,2.875,1.2,0.25,-2.625,1.25,0.25,-2.625,       249P    425
1.2,0.25,2.625,-1.25,0.25,2.625,-1.2,0.25,-2.875,-1.25,0.25,         249P    426
-2.875,-1.2,0.25,2.75000000000001,-1.25,0.5,3.,-1.25,0.25,3.,        249P    427
-1.2,0.25,2.75000000000001,-1.2,0.5,3.,-1.2,0.075,-3.,-1.2,          249P    428
0.075,-3.,-1.2,0.25,-2.75,-1.2,0.5,3.,-1.25,0.,3.,1.25,0.,3.,        249P    429
1.25,0.25,3.,1.2,0.25,3.,1.2,0.075,3.,1.175,0.05,3.,-1.175,0.05,     249P    430
2.75000000000001,1.25,0.5,2.75000000000001,1.2,0.5,-2.75,1.2,        249P    431
0.5,-3.,1.2,0.25,-3.,1.2,0.075,-2.75,1.25,0.5,-3.,1.25,0.25,-3.,     249P    432
1.25,0.,-3.,-1.25,0.,-3.,-1.25,0.25,-3.,-1.175,0.05,-3.,1.175,       249P    433
0.05,-2.74999999999999,-1.25,0.5;                                    249P    434
504,54,101,249,1,249,1,103,249,1,249,2,105,249,2,249,2,107,249,      251P    435
3,249,3,109,249,3,249,4,111,249,4,249,4,113,249,5,249,5,115,249,     251P    436
5,249,6,117,249,6,249,6,119,249,7,249,7,121,249,7,249,8,123,249,     251P    437
8,249,8,125,249,9,249,10,127,249,10,249,11,129,249,11,249,12,        251P    438
131,249,12,249,9,133,249,13,249,11,135,249,14,249,13,137,249,14,     251P    439
249,15,139,249,16,249,15,141,249,12,249,16,143,249,17,249,10,        251P    440
145,249,18,249,17,147,249,18,249,19,149,249,20,249,19,151,249,       251P    441
21,249,20,153,249,22,249,21,155,249,23,249,22,157,249,13,249,23,     251P    442
159,249,19,249,24,161,249,24,249,25,163,249,25,249,20,165,249,       251P    443
26,249,25,167,249,27,249,26,169,249,28,249,27,171,249,21,249,28,     251P    444
173,249,29,249,30,175,249,30,249,27,177,249,26,249,29,179,249,       251P    445
31,249,30,181,249,32,249,31,183,249,32,249,33,185,249,15,249,33,     251P    446
187,249,34,249,14,189,249,35,249,34,191,249,28,249,35,193,249,       251P    447
33,249,36,195,249,36,249,16,197,249,23,249,34,199,249,35,249,22,     251P    448
201,249,36,249,9,203,249,24,249,29,205,249,31,249,18,207,249,17,     251P    449
249,32;                                                              251P    450
406,1,5HBody1;                                                       253P    451
314,62.7450980392157,62.7450980392157,62.7450980392157,13HSteel      255P    452
- Satin;                                                             255P    453
S      1G      3D    256P    453                                        T      1
